<svg xmlns="http://www.w3.org/2000/svg" width="12" height="12" viewBox="0 0 12 12">
    <g fill="none" fill-rule="nonzero">
        <path fill="#829AB1" d="M6 6.136c0-1.016.806-1.84 1.8-1.84h2.4c.994 0 1.8.824 1.8 1.84v1.841a.607.607 0 0 1-.6.614H6.6a.607.607 0 0 1-.6-.614.607.607 0 0 1-.6.614H.6a.607.607 0 0 1-.6-.614v-1.84C0 5.12.806 4.294 1.8 4.294h2.4c.994 0 1.8.825 1.8 1.841zM3 3.682c-.994 0-1.8-.824-1.8-1.841S2.006 0 3 0s1.8.824 1.8 1.84c0 1.018-.806 1.842-1.8 1.842zm6 0c-.994 0-1.8-.824-1.8-1.841S8.006 0 9 0s1.8.824 1.8 1.84c0 1.018-.806 1.842-1.8 1.842z"/>
        <path fill="#486581" d="M6 6.136c-.994 0-1.8-.824-1.8-1.84 0-1.017.806-1.841 1.8-1.841s1.8.824 1.8 1.84c0 1.017-.806 1.841-1.8 1.841zm-1.8.614h3.6c.994 0 1.8.824 1.8 1.84v1.842a.607.607 0 0 1-.6.613H3a.607.607 0 0 1-.6-.613V8.59c0-1.017.806-1.841 1.8-1.841z"/>
    </g>
</svg>
