<svg xmlns="http://www.w3.org/2000/svg" width="12" height="11" viewBox="0 0 12 11">
    <g fill="none" fill-rule="nonzero">
        <path fill="#829AB1" d="M1.8 3.056h8.4c.331 0 .6.273.6.61v6.723a.606.606 0 0 1-.6.611H1.8a.606.606 0 0 1-.6-.611V3.667c0-.338.269-.611.6-.611zm.6 1.222v4.278h7.2V4.278H2.4z"/>
        <path fill="#486581" d="M2.4 5.5C1.075 5.5 0 4.406 0 3.056a.621.621 0 0 1 .06-.275L1.26.336A.599.599 0 0 1 1.8 0h8.4a.599.599 0 0 1 .54.336l1.2 2.445a.73.73 0 0 1 .06.275 2.444 2.444 0 0 1-1.55 2.288 2.37 2.37 0 0 1-2.65-.669c-.455.528-1.11.83-1.8.83s-1.345-.302-1.8-.83a2.375 2.375 0 0 1-1.8.825z"/>
    </g>
</svg>
