<svg xmlns="http://www.w3.org/2000/svg" width="12" height="11" viewBox="0 0 12 11">
    <g fill="none" fill-rule="nonzero">
        <path fill="#829AB1" d="M1.824 6.78l-.06-.18H1.2A1.2 1.2 0 0 1 0 5.4V4.2C0 3.54.54 3 1.2 3h.6a.6.6 0 0 1 .6-.6h3.804a1.8 1.8 0 0 0 1.272-.528l.996-.996A3 3 0 0 1 10.596 0h.804a.6.6 0 0 1 .6.6V9a.6.6 0 0 1-.6.6h-.804a3 3 0 0 1-2.124-.876l-.996-.996A1.8 1.8 0 0 0 6.204 7.2H5.4v3a.6.6 0 0 1-.6.6H3.6a.6.6 0 0 1-.57-.408l-1.2-3.588a.6.6 0 0 1 0-.03l-.006.006z"/>
        <rect width="4.8" height="6" x="1.2" y="1.8" fill="#486581" rx="1"/>
    </g>
</svg>
