<svg xmlns="http://www.w3.org/2000/svg" width="12" height="12" viewBox="0 0 12 12">
    <g fill="none" fill-rule="nonzero">
        <path fill="#829AB1" d="M1.263 1.263h8.842c.698 0 1.263.566 1.263 1.263v8.21c0 .698-.565 1.264-1.263 1.264H1.263A1.263 1.263 0 0 1 0 10.737v-8.21c0-.695.568-1.264 1.263-1.264zm0 3.158v6.316h8.842V4.42H1.263z"/>
        <path fill="#486581" d="M6.316 6.947H8.21v1.895H6.316V6.947zM2.526 0c.35 0 .632.283.632.632v1.894a.632.632 0 0 1-1.263 0V.632c0-.35.283-.632.631-.632zm6.316 0c.349 0 .632.283.632.632v1.894a.632.632 0 0 1-1.263 0V.632c0-.35.282-.632.631-.632z"/>
    </g>
</svg>
