<svg xmlns="http://www.w3.org/2000/svg" width="12" height="10" viewBox="0 0 12 10">
    <g fill="none" fill-rule="nonzero">
        <path fill="#486581" d="M9.273 6.404a2.183 2.183 0 0 0-4.364.141H1.091A1.09 1.09 0 0 1 0 5.455V1.09C0 .49.49 0 1.09 0h7.637c.603 0 1.091.488 1.091 1.09v4.365a1.09 1.09 0 0 1-.545.949zM4.909 4.909a1.636 1.636 0 1 0 0-3.273 1.636 1.636 0 0 0 0 3.273z"/>
        <path fill="#829AB1" d="M3.273 3.273h7.636c.603 0 1.091.488 1.091 1.09v4.364a1.09 1.09 0 0 1-1.09 1.091H3.272a1.09 1.09 0 0 1-1.091-1.09V4.363c0-.6.49-1.091 1.09-1.091zM7.09 8.182a1.636 1.636 0 1 0 0-3.273 1.636 1.636 0 0 0 0 3.273z"/>
    </g>
</svg>
