<svg xmlns="http://www.w3.org/2000/svg" width="12" height="12" viewBox="0 0 12 12">
    <g fill="none" fill-rule="nonzero">
        <path fill="#829AB1" d="M1.8 3.375h8.4c.313 0 .575.225.6.518l.6 6.75a.541.541 0 0 1-.158.427.62.62 0 0 1-.442.18H1.2a.62.62 0 0 1-.442-.18.541.541 0 0 1-.158-.428l.6-6.75c.025-.292.287-.518.6-.517z"/>
        <path fill="#486581" d="M4.2 4.5c0 .31-.269.563-.6.563-.331 0-.6-.252-.6-.563V2.812C3 1.26 4.343 0 6 0s3 1.26 3 2.813V4.5c0 .31-.269.563-.6.563-.331 0-.6-.252-.6-.563V2.812c0-.931-.806-1.687-1.8-1.687s-1.8.756-1.8 1.688V4.5z"/>
    </g>
</svg>
