<svg xmlns="http://www.w3.org/2000/svg" width="12" height="12" viewBox="0 0 12 12">
    <g fill="none" fill-rule="nonzero">
        <path fill="#486581" d="M.6 5.4h1.2a.6.6 0 1 1 0 1.2H.6V5.4zm2.004-3.642l.852.846a.602.602 0 0 1-.852.852l-.846-.852.846-.846zM6.6.6v1.2a.6.6 0 1 1-1.2 0V.6h1.2zm3.642 2.004l-.846.852a.602.602 0 0 1-.852-.852l.852-.846.846.846zM11.4 6.6h-1.2a.6.6 0 1 1 0-1.2h1.2v1.2z"/>
        <path fill="#829AB1" d="M6 12A6 6 0 1 1 6 0a6 6 0 0 1 0 12zM1.842 8.4h8.316a4.8 4.8 0 1 0-8.316 0z"/>
        <path fill="#486581" d="M5.4 7.362V4.2a.6.6 0 1 1 1.2 0v3.162a1.2 1.2 0 1 1-1.2 0z"/>
    </g>
</svg>
