<svg xmlns="http://www.w3.org/2000/svg" width="12" height="12" viewBox="0 0 12 12">
    <g fill="none" fill-rule="nonzero">
        <path fill="#829AB1" d="M6 12a1.333 1.333 0 0 1-.94-.393l-.553-.547a1.333 1.333 0 0 0-.947-.393H.667A.667.667 0 0 1 0 10V.667C0 .298.298 0 .667 0h2.666C4.383 0 5.37.494 6 1.333V12z"/>
        <path fill="#486581" d="M6 12V1.333A3.333 3.333 0 0 1 8.667 0h2.666c.369 0 .667.298.667.667V10a.667.667 0 0 1-.667.667H8.44c-.355 0-.696.141-.947.393l-.553.547c-.249.25-.587.392-.94.393z"/>
    </g>
</svg>
