<svg xmlns="http://www.w3.org/2000/svg" width="12" height="12" viewBox="0 0 12 12">
    <g fill="none" fill-rule="nonzero">
        <path fill="#829AB1" d="M1.333 0h9.334C11.403 0 12 .597 12 1.333v9.334c0 .736-.597 1.333-1.333 1.333H1.333A1.333 1.333 0 0 1 0 10.667V1.333C0 .6.6 0 1.333 0zm1.334 2A.667.667 0 0 0 2 2.667v2.666c0 .369.298.667.667.667h2a.667.667 0 0 0 .666-.667V2.667A.667.667 0 0 0 4.667 2h-2z"/>
        <path fill="#486581" d="M2.667 7.333h6.666c.369 0 .667.299.667.667v1.333a.667.667 0 0 1-.667.667H2.667A.667.667 0 0 1 2 9.333V8c0-.368.298-.667.667-.667zM7.333 2h2a.667.667 0 1 1 0 1.333h-2a.667.667 0 1 1 0-1.333zm0 2.667h2a.667.667 0 1 1 0 1.333h-2a.667.667 0 0 1 0-1.333z"/>
    </g>
</svg>
