<svg xmlns="http://www.w3.org/2000/svg" width="12" height="12" viewBox="0 0 12 12">
    <g fill="none" fill-rule="nonzero">
        <circle cx="6" cy="6" r="6" fill="#829AB1"/>
        <path fill="#486581" d="M6.6 3.072v2.376C7.95 5.664 9 6.606 9 7.8 9 9 7.95 9.936 6.6 10.152v.048a.6.6 0 0 1-1.2 0v-.048a2.892 2.892 0 0 1-2.202-1.494.6.6 0 0 1 1.08-.51c.174.36.588.654 1.122.78V6.552C4.05 6.336 3 5.4 3 4.2s1.05-2.136 2.4-2.352V1.8a.6.6 0 1 1 1.2 0v.048c.937.11 1.761.67 2.208 1.5a.6.6 0 0 1-1.086.51c-.168-.36-.588-.66-1.122-.786zM5.4 5.328V3.072c-.714.168-1.2.636-1.2 1.128 0 .492.486.96 1.2 1.128zm1.2 1.344v2.256c.714-.168 1.2-.636 1.2-1.128 0-.492-.486-.96-1.2-1.128z"/>
    </g>
</svg>
