<svg xmlns="http://www.w3.org/2000/svg" width="12" height="12" viewBox="0 0 12 12">
    <g fill="none" fill-rule="nonzero">
        <path fill="#829AB1" d="M5.25 11.514l-.51.168a1.54 1.54 0 0 1-1.86-.774l-.24-.48a2.4 2.4 0 0 0-1.068-1.062l-.48-.24a1.542 1.542 0 0 1-.774-1.86l.168-.516a2.4 2.4 0 0 0 0-1.5l-.168-.51a1.54 1.54 0 0 1 .774-1.86l.48-.24a2.4 2.4 0 0 0 1.062-1.068l.24-.48a1.542 1.542 0 0 1 1.86-.774l.516.168a2.4 2.4 0 0 0 1.5 0l.51-.168a1.54 1.54 0 0 1 1.86.774l.24.48a2.4 2.4 0 0 0 1.068 1.062l.48.24a1.542 1.542 0 0 1 .774 1.86l-.168.516a2.4 2.4 0 0 0 0 1.5l.168.51a1.54 1.54 0 0 1-.774 1.86l-.48.24a2.4 2.4 0 0 0-1.062 1.068l-.24.48a1.542 1.542 0 0 1-1.86.774l-.516-.168a2.4 2.4 0 0 0-1.5 0z"/>
        <path fill="#486581" d="M4.02 8.82a.6.6 0 1 1-.84-.84l4.8-4.8a.6.6 0 0 1 .84.84l-4.8 4.8zM8.1 9a.9.9 0 1 1 0-1.8.9.9 0 0 1 0 1.8zM3.9 4.8a.9.9 0 1 1 0-1.8.9.9 0 0 1 0 1.8z"/>
    </g>
</svg>
