<svg xmlns="http://www.w3.org/2000/svg" width="12" height="12" viewBox="0 0 12 12">
    <g fill="none" fill-rule="nonzero">
        <path fill="#829AB1" d="M1.333 0h9.334C11.403 0 12 .597 12 1.333v9.334c0 .736-.597 1.333-1.333 1.333H1.333A1.333 1.333 0 0 1 0 10.667V1.333C0 .6.6 0 1.333 0zm6 4a1.333 1.333 0 1 0 0-2.667 1.333 1.333 0 0 0 0 2.667z"/>
        <path fill="#486581" d="M8.2 6.2a.667.667 0 0 1 .933 0l1.334 1.333c.125.123.197.291.2.467v2a.667.667 0 0 1-.667.667H2A.667.667 0 0 1 1.333 10V8a.667.667 0 0 1 .2-.467L4.2 4.867a.667.667 0 0 1 .933 0l2.2 2.193.867-.867V6.2z"/>
    </g>
</svg>
