<svg xmlns="http://www.w3.org/2000/svg" width="12" height="12" viewBox="0 0 12 12">
    <g fill="none" fill-rule="nonzero">
        <path fill="#829AB1" d="M4.8 7.752V8.4a.6.6 0 0 0 .6.6h1.2a.6.6 0 0 0 .6-.6v-.648a14.33 14.33 0 0 0 4.8-1.26V10.8a1.2 1.2 0 0 1-1.2 1.2H1.2A1.2 1.2 0 0 1 0 10.8V6.492a14.31 14.31 0 0 0 4.8 1.26z"/>
        <path fill="#486581" d="M7.2 6.552V6a.6.6 0 0 0-.6-.6H5.4a.6.6 0 0 0-.6.6v.552A14.31 14.31 0 0 1 0 5.292V3.6c0-.66.54-1.2 1.2-1.2H3v-.6A1.8 1.8 0 0 1 4.8 0h2.4A1.8 1.8 0 0 1 9 1.8v.6h1.8A1.2 1.2 0 0 1 12 3.6v1.692a14.31 14.31 0 0 1-4.8 1.26zM7.8 2.4v-.6a.6.6 0 0 0-.6-.6H4.8a.6.6 0 0 0-.6.6v.6h3.6z"/>
    </g>
</svg>
