<svg xmlns="http://www.w3.org/2000/svg" width="12" height="12" viewBox="0 0 12 12">
    <g fill="none" fill-rule="nonzero">
        <path fill="#829AB1" d="M1.333 0h9.334C11.403 0 12 .597 12 1.333v9.334c0 .736-.597 1.333-1.333 1.333H1.333A1.333 1.333 0 0 1 0 10.667V1.333C0 .6.6 0 1.333 0zm7.334 5.333a1.333 1.333 0 1 0 0-2.666 1.333 1.333 0 0 0 0 2.666zm-5.334 4a1.333 1.333 0 1 0 0-2.666 1.333 1.333 0 0 0 0 2.666z"/>
        <path fill="#486581" d="M4.487 7.333h4.846a.667.667 0 0 1 0 1.334H4.487c.238-.413.238-.921 0-1.334zm3.026-4c-.238.413-.238.921 0 1.334H2.667a.667.667 0 0 1 0-1.334h4.846z"/>
    </g>
</svg>
