<svg xmlns="http://www.w3.org/2000/svg" width="400" height="334" viewBox="0 0 400 334">
    <g fill="none" fill-rule="nonzero">
        <path fill="#2F2E41" d="M18.587 318.187c5.548 10.29 17.324 14.707 17.324 14.707s2.78-12.266-2.769-22.556c-5.548-10.29-17.324-14.707-17.324-14.707s-2.78 12.266 2.769 22.556z"/>
        <path fill="#6C63FF" d="M22.4 314.801c10.017 6.027 13.875 17.998 13.875 17.998s-12.383 2.199-22.4-3.828C3.858 322.945 0 310.974 0 310.974s12.383-2.2 22.4 3.827z"/>
        <path fill="#F2F2F2" d="M184.486 16.03h62.5v1h-62.5z"/>
        <path fill="#F2F2F2" d="M229.129 16.7h1v8.259h-1zM201.897 16.7h1v8.259h-1zM216.182 58.887h62.5v1h-62.5z"/>
        <path fill="#F2F2F2" d="M233.147 50.852h1v8.259h-1zM260.379 50.852h1v8.259h-1zM299.218 78.977h62.5v1h-62.5z"/>
        <path fill="#F2F2F2" d="M316.182 70.941h1V79.2h-1zM343.415 70.941h1V79.2h-1zM292.968 286.12h62.5v1h-62.5z"/>
        <path fill="#F2F2F2" d="M309.932 278.084h1v8.259h-1zM337.165 278.084h1v8.259h-1zM186.272 142.816h62.5v1h-62.5z"/>
        <path fill="#F2F2F2" d="M203.236 134.78h1v8.259h-1zM230.468 134.78h1v8.259h-1zM205.915 250.405h62.5v1h-62.5z"/>
        <path fill="#F2F2F2" d="M222.879 242.37h1v8.259h-1zM250.111 242.37h1v8.259h-1zM305.915 217.816h62.5v1h-62.5z"/>
        <path fill="#F2F2F2" d="M322.879 209.78h1v8.259h-1zM350.111 209.78h1v8.259h-1z"/>
        <path fill="#2F2E41" d="M161.634 313.475H55.926v-.76h104.947V275.83h-96.06l-4.667-9.722.686-.33 4.46 9.291h96.342z"/>
        <circle cx="69.995" cy="324.122" r="7.985" fill="#3F3D56"/>
        <circle cx="148.706" cy="324.122" r="7.985" fill="#3F3D56"/>
        <circle cx="241.485" cy="154.533" r="4.943" fill="#3F3D56"/>
        <path fill="#2F2E41" d="M172.94 263.283H54.124l-25.71-84.034h171.002l-.155.494-26.321 83.54zm-118.254-.76h117.696l25.998-82.514H29.442l25.244 82.513z"/>
        <path fill="#F2F2F2" d="M163.665 258.91H59.305l-22.582-74.528H186.92l-.137.439z"/>
        <path fill="#2F2E41" d="M201.547 171.741l-.735-.195 5.018-18.915h29.191v.761h-28.606zM36.722 204.725h154.149v1H36.722zM45.294 232.743h136.749v1H45.294z"/>
        <path fill="#2F2E41" d="M113.533 179.629h1v83.274h-1zM142.883 262.876l5.459-83.271.759.05-5.46 83.271zM78.741 179.653l.76-.049 5.427 83.274-.76.05zM0 332.589h400v1H0z"/>
        <path fill="#A0616A" d="M265.808 27.623s6.526 18.574 2.51 21.432c-4.016 2.858 13.555 26.194 13.555 26.194l21.084-5.715-11.546-19.526s-1.506-19.527-1.506-22.385c0-2.857-24.097 0-24.097 0z"/>
        <path fill="#000" d="M265.808 27.623s6.526 18.574 2.51 21.432c-4.016 2.858 13.555 26.194 13.555 26.194l21.084-5.715-11.546-19.526s-1.506-19.527-1.506-22.385c0-2.857-24.097 0-24.097 0z" opacity=".1"/>
        <path fill="#2F2E41" d="M254.854 160.024s-1.905 23.813 0 36.196 4.763 46.674 4.763 46.674 0 64.771 10.478 65.724c10.477.952 18.098 1.905 19.05-1.905.953-3.81-4.762-5.715-1.905-7.62 2.858-1.905 3.81-8.573 0-16.193-3.81-7.62 0-84.775 0-84.775l18.098 48.579s1.905 40.006 3.81 45.721c1.905 5.715-1.905 16.193 4.763 17.145 6.667.953 14.288-4.762 18.098-6.667 3.81-1.905-5.715-1.905-3.81-2.858 1.905-.952 7.62-3.81 5.715-4.762-1.905-.953-3.81-46.674-3.81-46.674s-5.24-97.634-11.907-101.444c-6.667-3.81-10.954 2.753-10.954 2.753l-52.389 10.106z"/>
        <path fill="#2F2E41" d="M272 304.808v7.62s-8.573 20.714 0 20.714c8.572 0 15.24 2.147 15.24-.71v-25.72L272 304.809zM328.199 304.794v7.62s8.572 20.715 0 20.715c-8.573 0-15.24 2.146-15.24-.711v-25.719l15.24-1.905z"/>
        <circle cx="279.144" cy="24.289" r="17.145" fill="#A0616A"/>
        <path fill="#6C63FF" d="M273.905 56.199s4.762 14.288 12.383 11.43l7.62-2.857 13.335 91.442s-10.478 15.24-25.718 5.715-7.62-105.73-7.62-105.73z"/>
        <path fill="#3F3D56" d="M287.24 53.341l4.286-9.049S316.769 56.2 320.58 60.01c3.81 3.81 3.81 9.525 3.81 9.525l-6.668 23.813s1.905 52.39 1.905 54.294c0 1.905 6.668 12.383 1.905 8.573-4.763-3.81-5.715-7.62-9.525-1.905-3.81 5.715-12.383 12.383-12.383 12.383L287.24 53.342z"/>
        <path fill="#A0616A" d="M320.579 121.923l-2.858 26.67s-17.146 15.241-13.335 16.194c3.81.952 5.715-2.858 5.715-2.858s6.667 6.668 10.477 2.858c3.81-3.81 13.336-40.006 13.336-40.006l-13.335-2.858z"/>
        <path fill="#2F2E41" d="M279.509.058c-3.801-.136-7.869-.203-11.073 1.845a16.211 16.211 0 0 0-3.827 3.746c-3.121 3.946-5.818 8.91-4.659 13.806l1.347-.525c0 1.307-.29 2.597-.85 3.778.189-.551.824.34.654.898l-1.484 4.866c2.439-.894 5.472.916 5.843 3.487.17-5.653.756-12.134 5.341-15.444 2.313-1.669 5.24-2.178 8.055-2.63 2.597-.418 5.32-.816 7.808.039 2.488.855 4.607 3.4 4.043 5.969 1.147-.395 2.43.404 2.997 1.477.567 1.073.596 2.338.613 3.551 1.223.865 2.615-.851 3.113-2.263 1.17-3.315 2.21-6.843 1.58-10.3-.63-3.459-3.448-6.763-6.963-6.775a2.44 2.44 0 0 0 .635-1.718l-2.897-.245a3.202 3.202 0 0 0 1.913-1.009c-1.163 1.28-10.308-2.486-12.19-2.553z"/>
        <path fill="#3F3D56" d="M278.667 50.484s-7.754-7.599-10.544-7.133c-2.79.465-6.601 7.133-6.601 7.133s-22.86 7.62-21.908 15.24c.952 7.62 11.43 44.769 11.43 44.769s8.573 44.769.953 49.531c-7.62 4.763 36.196 17.146 37.148 11.43.953-5.715 2.858-62.866 0-71.439-2.857-8.573-10.478-49.531-10.478-49.531zM312.006 65.724h11.778s8.225 36.196 9.177 40.006c.953 3.81 2.858 21.908 1.905 21.908-.952 0-20.003-3.81-20.003-.952l-2.857-60.962z"/>
        <path fill="#F2F2F2" d="M311.607 155.357h-45.09c-4.4-20.24-4.767-39.797 0-58.482h45.09c-7.276 18.349-7.731 37.771 0 58.482z"/>
        <path fill="#A0616A" d="M248.187 130.496l13.335 5.715s25.718 3.81 25.718-6.668c0-10.477-25.718-4.762-25.718-4.762l-8.573-2.741-4.762 8.456z"/>
        <path fill="#3F3D56" d="M251.044 60.009l-11.43 2.858-8.573 50.483s-2.857 13.336 1.905 14.288c4.763.953 18.098 8.573 18.098 8.573s1.905-14.288 5.715-14.288l-9.525-7.62 5.715-33.338-1.905-20.956z"/>
        <path fill="#F2F2F2" d="M26.897 157.548h62.5v1h-62.5z"/>
        <path fill="#F2F2F2" d="M43.861 149.512h1v8.259h-1zM71.093 149.512h1v8.259h-1zM48.772 25.405h62.5v1h-62.5z"/>
        <path fill="#F2F2F2" d="M93.415 26.075h1v8.259h-1zM66.182 26.075h1v8.259h-1zM111.718 113.352h62.5v1h-62.5z"/>
        <path fill="#F2F2F2" d="M156.361 114.021h1v8.259h-1zM129.129 114.021h1v8.259h-1zM5.468 112.905h62.5v1h-62.5z"/>
        <path fill="#F2F2F2" d="M50.111 113.575h1v8.259h-1zM22.879 113.575h1v8.259h-1zM80.468 68.262h62.5v1h-62.5z"/>
        <path fill="#F2F2F2" d="M97.432 60.227h1v8.259h-1zM124.665 60.227h1v8.259h-1z"/>
    </g>
</svg>
