<svg xmlns="http://www.w3.org/2000/svg" width="468" height="350" viewBox="0 0 468 350">
    <defs>
        <linearGradient id="a" x1="50.016%" x2="50.016%" y1="99.982%" y2=".001%">
            <stop offset="0%" stop-color="gray" stop-opacity=".25"/>
            <stop offset="54%" stop-color="gray" stop-opacity=".12"/>
            <stop offset="100%" stop-color="gray" stop-opacity=".1"/>
        </linearGradient>
        <linearGradient id="b" x1="50.028%" x2="50.028%" y1="99.976%" y2="-.106%">
            <stop offset="0%" stop-color="gray" stop-opacity=".25"/>
            <stop offset="54%" stop-color="gray" stop-opacity=".12"/>
            <stop offset="100%" stop-color="gray" stop-opacity=".1"/>
        </linearGradient>
        <linearGradient id="c" x1="49.927%" x2="49.927%" y1="99.961%" y2="-.078%">
            <stop offset="0%" stop-color="gray" stop-opacity=".25"/>
            <stop offset="54%" stop-color="gray" stop-opacity=".12"/>
            <stop offset="100%" stop-color="gray" stop-opacity=".1"/>
        </linearGradient>
        <linearGradient id="d" x1="50%" x2="50%" y1="99.99%" y2="0%">
            <stop offset="0%" stop-color="gray" stop-opacity=".25"/>
            <stop offset="54%" stop-color="gray" stop-opacity=".12"/>
            <stop offset="100%" stop-color="gray" stop-opacity=".1"/>
        </linearGradient>
        <linearGradient id="e" x1="49.97%" x2="49.97%" y1="100.035%" y2="0%">
            <stop offset="0%" stop-color="gray" stop-opacity=".25"/>
            <stop offset="54%" stop-color="gray" stop-opacity=".12"/>
            <stop offset="100%" stop-color="gray" stop-opacity=".1"/>
        </linearGradient>
        <linearGradient id="f" x1="50.021%" x2="50.021%" y1="99.979%" y2="-.046%">
            <stop offset="0%" stop-color="gray" stop-opacity=".25"/>
            <stop offset="54%" stop-color="gray" stop-opacity=".12"/>
            <stop offset="100%" stop-color="gray" stop-opacity=".1"/>
        </linearGradient>
        <linearGradient id="g" x1="50.024%" x2="50.024%" y1="78.348%" y2="21.348%">
            <stop offset="0%" stop-color="gray" stop-opacity=".25"/>
            <stop offset="54%" stop-color="gray" stop-opacity=".12"/>
            <stop offset="100%" stop-color="gray" stop-opacity=".1"/>
        </linearGradient>
        <linearGradient id="h" x1="50.001%" x2="50.001%" y1="99.927%" y2=".101%">
            <stop offset="0%" stop-color="gray" stop-opacity=".25"/>
            <stop offset="54%" stop-color="gray" stop-opacity=".12"/>
            <stop offset="100%" stop-color="gray" stop-opacity=".1"/>
        </linearGradient>
        <linearGradient id="i" x1="49.988%" x2="49.988%" y1="99.782%" y2="0%">
            <stop offset="0%" stop-color="gray" stop-opacity=".25"/>
            <stop offset="54%" stop-color="gray" stop-opacity=".12"/>
            <stop offset="100%" stop-color="gray" stop-opacity=".1"/>
        </linearGradient>
        <linearGradient id="j" x1="50.032%" x2="50.032%" y1="100%" y2=".02%">
            <stop offset="0%" stop-color="gray" stop-opacity=".25"/>
            <stop offset="54%" stop-color="gray" stop-opacity=".12"/>
            <stop offset="100%" stop-color="gray" stop-opacity=".1"/>
        </linearGradient>
        <linearGradient id="k" x1="50%" x2="50%" y1="100%" y2="0%">
            <stop offset="0%" stop-color="gray" stop-opacity=".25"/>
            <stop offset="54%" stop-color="gray" stop-opacity=".12"/>
            <stop offset="100%" stop-color="gray" stop-opacity=".1"/>
        </linearGradient>
        <linearGradient id="l" x1="50.004%" x2="50.004%" y1="100%" y2="-.007%">
            <stop offset="0%" stop-color="gray" stop-opacity=".25"/>
            <stop offset="54%" stop-color="gray" stop-opacity=".12"/>
            <stop offset="100%" stop-color="gray" stop-opacity=".1"/>
        </linearGradient>
        <linearGradient id="m" x1="49.994%" x2="49.994%" y1="99.899%" y2="-.124%">
            <stop offset="0%" stop-color="gray" stop-opacity=".25"/>
            <stop offset="54%" stop-color="gray" stop-opacity=".12"/>
            <stop offset="100%" stop-color="gray" stop-opacity=".1"/>
        </linearGradient>
        <linearGradient id="n" x1="49.975%" x2="49.975%" y1="99.987%" y2="-.029%">
            <stop offset="0%" stop-color="gray" stop-opacity=".25"/>
            <stop offset="54%" stop-color="gray" stop-opacity=".12"/>
            <stop offset="100%" stop-color="gray" stop-opacity=".1"/>
        </linearGradient>
        <linearGradient id="o" x1="50.04%" x2="50.04%" y1="99.997%" y2="-.18%">
            <stop offset="0%" stop-color="gray" stop-opacity=".25"/>
            <stop offset="54%" stop-color="gray" stop-opacity=".12"/>
            <stop offset="100%" stop-color="gray" stop-opacity=".1"/>
        </linearGradient>
        <linearGradient id="p" x1="50.04%" x2="50.04%" y1="99.797%" y2="-.19%">
            <stop offset="0%" stop-color="gray" stop-opacity=".25"/>
            <stop offset="54%" stop-color="gray" stop-opacity=".12"/>
            <stop offset="100%" stop-color="gray" stop-opacity=".1"/>
        </linearGradient>
        <linearGradient id="q" x1="49.828%" x2="49.828%" y1="100%" y2="0%">
            <stop offset="0%" stop-color="gray" stop-opacity=".25"/>
            <stop offset="54%" stop-color="gray" stop-opacity=".12"/>
            <stop offset="100%" stop-color="gray" stop-opacity=".1"/>
        </linearGradient>
        <linearGradient id="r" x1="49.939%" x2="49.939%" y1="99.889%" y2="-.222%">
            <stop offset="0%" stop-color="gray" stop-opacity=".25"/>
            <stop offset="54%" stop-color="gray" stop-opacity=".12"/>
            <stop offset="100%" stop-color="gray" stop-opacity=".1"/>
        </linearGradient>
        <linearGradient id="s" x1="50.007%" x2="50.007%" y1="100.021%" y2=".095%">
            <stop offset="0%" stop-color="gray" stop-opacity=".25"/>
            <stop offset="54%" stop-color="gray" stop-opacity=".12"/>
            <stop offset="100%" stop-color="gray" stop-opacity=".1"/>
        </linearGradient>
        <linearGradient id="t" x1="49.986%" x2="49.986%" y1="100.005%" y2="0%">
            <stop offset="0%" stop-color="gray" stop-opacity=".25"/>
            <stop offset="54%" stop-color="gray" stop-opacity=".12"/>
            <stop offset="100%" stop-color="gray" stop-opacity=".1"/>
        </linearGradient>
        <linearGradient id="u" x1="49.783%" x2="49.783%" y1="100.118%" y2="0%">
            <stop offset="0%" stop-color="gray" stop-opacity=".25"/>
            <stop offset="54%" stop-color="gray" stop-opacity=".12"/>
            <stop offset="100%" stop-color="gray" stop-opacity=".1"/>
        </linearGradient>
        <linearGradient id="v" x1="49.791%" x2="49.791%" y1="100.035%" y2="0%">
            <stop offset="0%" stop-color="gray" stop-opacity=".25"/>
            <stop offset="54%" stop-color="gray" stop-opacity=".12"/>
            <stop offset="100%" stop-color="gray" stop-opacity=".1"/>
        </linearGradient>
        <linearGradient id="w" x1="51.108%" x2="51.108%" y1="100.087%" y2="0%">
            <stop offset="0%" stop-color="gray" stop-opacity=".25"/>
            <stop offset="54%" stop-color="gray" stop-opacity=".12"/>
            <stop offset="100%" stop-color="gray" stop-opacity=".1"/>
        </linearGradient>
        <linearGradient id="x" x1="49.981%" x2="49.981%" y1="100.109%" y2=".574%">
            <stop offset="0%" stop-color="gray" stop-opacity=".25"/>
            <stop offset="54%" stop-color="gray" stop-opacity=".12"/>
            <stop offset="100%" stop-color="gray" stop-opacity=".1"/>
        </linearGradient>
        <linearGradient id="y" x1="50%" x2="50%" y1="100.006%" y2="0%">
            <stop offset="0%" stop-color="gray" stop-opacity=".25"/>
            <stop offset="54%" stop-color="gray" stop-opacity=".12"/>
            <stop offset="100%" stop-color="gray" stop-opacity=".1"/>
        </linearGradient>
        <linearGradient id="z" x1="49.993%" x2="49.993%" y1="66.72%" y2="32.72%">
            <stop offset="0%" stop-color="gray" stop-opacity=".25"/>
            <stop offset="54%" stop-color="gray" stop-opacity=".12"/>
            <stop offset="100%" stop-color="gray" stop-opacity=".1"/>
        </linearGradient>
        <linearGradient id="A" x1="49.997%" x2="49.997%" y1="100.025%" y2="0%">
            <stop offset="0%" stop-color="gray" stop-opacity=".25"/>
            <stop offset="54%" stop-color="gray" stop-opacity=".12"/>
            <stop offset="100%" stop-color="gray" stop-opacity=".1"/>
        </linearGradient>
        <linearGradient id="B" x1="49.996%" x2="49.996%" y1="99.974%" y2="-.014%">
            <stop offset="0%" stop-color="gray" stop-opacity=".25"/>
            <stop offset="54%" stop-color="gray" stop-opacity=".12"/>
            <stop offset="100%" stop-color="gray" stop-opacity=".1"/>
        </linearGradient>
        <linearGradient id="C" x1="49.713%" x2="49.713%" y1="100%" y2="0%">
            <stop offset="0%" stop-color="gray" stop-opacity=".25"/>
            <stop offset="54%" stop-color="gray" stop-opacity=".12"/>
            <stop offset="100%" stop-color="gray" stop-opacity=".1"/>
        </linearGradient>
        <linearGradient id="D" x1="49.888%" x2="49.888%" y1="100%" y2="-.036%">
            <stop offset="0%" stop-color="gray" stop-opacity=".25"/>
            <stop offset="54%" stop-color="gray" stop-opacity=".12"/>
            <stop offset="100%" stop-color="gray" stop-opacity=".1"/>
        </linearGradient>
        <linearGradient id="E" x1="50.033%" x2="50.033%" y1="99.858%" y2="-.134%">
            <stop offset="0%" stop-color="gray" stop-opacity=".25"/>
            <stop offset="54%" stop-color="gray" stop-opacity=".12"/>
            <stop offset="100%" stop-color="gray" stop-opacity=".1"/>
        </linearGradient>
        <linearGradient id="F" x1="50.083%" x2="50.083%" y1="100%" y2="0%">
            <stop offset="0%" stop-color="gray" stop-opacity=".25"/>
            <stop offset="54%" stop-color="gray" stop-opacity=".12"/>
            <stop offset="100%" stop-color="gray" stop-opacity=".1"/>
        </linearGradient>
        <linearGradient id="G" x1="50.074%" x2="50.074%" y1="99.959%" y2="0%">
            <stop offset="0%" stop-color="gray" stop-opacity=".25"/>
            <stop offset="54%" stop-color="gray" stop-opacity=".12"/>
            <stop offset="100%" stop-color="gray" stop-opacity=".1"/>
        </linearGradient>
        <linearGradient id="H" x1="50.009%" x2="50.009%" y1="100.128%" y2=".043%">
            <stop offset="0%" stop-color="gray" stop-opacity=".25"/>
            <stop offset="54%" stop-color="gray" stop-opacity=".12"/>
            <stop offset="100%" stop-color="gray" stop-opacity=".1"/>
        </linearGradient>
        <linearGradient id="I" x1="49.992%" x2="49.992%" y1="100.132%" y2=".132%">
            <stop offset="0%" stop-color="gray" stop-opacity=".25"/>
            <stop offset="54%" stop-color="gray" stop-opacity=".12"/>
            <stop offset="100%" stop-color="gray" stop-opacity=".1"/>
        </linearGradient>
    </defs>
    <g fill="none" fill-rule="evenodd">
        <path fill="#4D7CFE" d="M266.735 49.044c-28.493-.986-55.63-10.187-81.543-20.252-25.913-10.064-51.58-21.228-79.39-26.542C87.913-1.184 67.454-1.67 53.045 7.925c-13.864 9.227-18.354 25.173-20.762 39.94-1.814 11.12-2.88 22.826 2.086 33.238 3.452 7.23 9.572 13.305 13.807 20.225 14.735 24.095 4.319 53.803-11.645 77.326-7.484 11.033-16.18 21.572-21.96 33.305-5.78 11.733-8.453 25.205-3.394 37.188 5.01 11.887 16.954 20.798 29.893 27.071 26.279 12.746 57.233 16.39 87.438 18.46 66.844 4.57 134.04 2.593 201.059.608 24.804-.731 49.713-1.475 74.112-5.31 13.55-2.13 27.538-5.512 37.377-13.674 12.486-10.36 15.58-27.899 7.212-40.89-14.036-21.789-52.83-27.2-62.653-50.581-5.397-12.873.146-27.208 7.995-39.143 16.836-25.61 45.051-48.075 46.535-77.343 1.021-20.102-12.543-40.235-33.516-49.749-21.982-9.971-52.47-8.717-68.68 7.784-16.707 16.998-46.063 23.54-71.215 22.664z" opacity=".1"/>
        <path fill="#E8E9ED" d="M0 54.362h114.25v114.25H0zM353.297 54.362h114.25v114.25h-114.25z"/>
        <path fill="#3ACC6C" d="M64.008 14.101l-1.14-1.166a.238.238 0 0 0-.18-.08.229.229 0 0 0-.181.08l-7.88 7.924-2.871-2.866a.247.247 0 0 0-.361 0l-1.15 1.15a.255.255 0 0 0 0 .369l3.62 3.614c.194.216.464.348.753.37.285-.025.552-.151.752-.356l8.643-8.669a.277.277 0 0 0 0-.37h-.005z" opacity=".5"/>
        <path fill="#4D7CFE" fill-rule="nonzero" d="M57.123 6.55a11.618 11.618 0 1 1-8.224 3.404 11.557 11.557 0 0 1 8.224-3.403zm0-1.808a13.44 13.44 0 1 0 13.44 13.436 13.432 13.432 0 0 0-13.44-13.436z" opacity=".5"/>
        <path fill="#3ACC6C" d="M152.248 51.668l-1.435-1.47a.3.3 0 0 0-.225-.097.29.29 0 0 0-.229.096l-9.919 9.994-3.614-3.61a.308.308 0 0 0-.225-.097.317.317 0 0 0-.229.097l-1.448 1.449a.317.317 0 0 0 0 .462l4.552 4.543c.246.27.587.436.951.462.356-.03.69-.186.942-.44l10.874-10.936a.348.348 0 0 0 0-.44l.005-.013z" opacity=".8"/>
        <path fill="#4D7CFE" fill-rule="nonzero" d="M143.575 42.158a14.639 14.639 0 1 1-10.355 4.289 14.529 14.529 0 0 1 10.355-4.289zm0-2.276c-9.344 0-16.919 7.575-16.919 16.92 0 9.343 7.575 16.918 16.919 16.918 9.344 0 16.919-7.575 16.919-16.919a16.914 16.914 0 0 0-16.92-16.919z" opacity=".8"/>
        <path fill="#4D7CFE" fill-rule="nonzero" d="M410.42 6.55a11.618 11.618 0 1 1-8.224 3.404 11.557 11.557 0 0 1 8.224-3.403zm0-1.808a13.44 13.44 0 1 0 13.441 13.436 13.432 13.432 0 0 0-13.44-13.436z" opacity=".5"/>
        <path fill="#4D7CFE" fill-rule="nonzero" d="M323.352 42.158a14.638 14.638 0 1 1-10.333 4.289 14.555 14.555 0 0 1 10.355-4.289h-.022zm.022-2.276c-9.344 0-16.92 7.575-16.92 16.92 0 9.343 7.576 16.918 16.92 16.918 9.344 0 16.918-7.575 16.918-16.919a16.914 16.914 0 0 0-16.94-16.919h.022z" opacity=".8"/>
        <path fill="#4D7CFE" fill-rule="nonzero" d="M233.038 69.005a19.345 19.345 0 1 1-13.691 5.666 19.226 19.226 0 0 1 13.691-5.666zm0-3.011c-12.354 0-22.369 10.015-22.369 22.369s10.015 22.37 22.37 22.37c12.354 0 22.369-10.016 22.369-22.37a22.365 22.365 0 0 0-22.37-22.37z"/>
        <path fill="#F3F5F7" d="M79.914 84.308h127.321v127.321H79.914zM259.691 84.308h127.321v127.321H259.691z"/>
        <path fill="#000" d="M11.416 74.645h42.467v4.719H11.416zM373.857 74.645h42.467v4.719h-42.467z" opacity=".1"/>
        <path stroke="#535461" stroke-width="2" d="M308.7 272.256s11.033-19.543 27.648-25.174a34 34 0 0 0 17.222-12.881 57.514 57.514 0 0 0 5.08-9.153"/>
        <path fill="#4D7CFE" d="M369.098 221.45c-1.893 1.837-10.711 3.739-10.711 3.739s2.166-8.757 4.059-10.597a4.778 4.778 0 0 1 6.652 6.859zM364.11 237.291c-2.589.515-11.006-2.68-11.006-2.68s6.573-6.164 9.161-6.688a4.777 4.777 0 0 1 1.858 9.368h-.013zM345.95 254.439c-2.492-.88-8.158-7.88-8.158-7.88s8.805-2.012 11.283-1.15a4.778 4.778 0 0 1-3.125 9.03zM329.308 264.314c-2.606-.44-9.377-6.388-9.377-6.388s8.33-3.465 10.931-3.038a4.777 4.777 0 1 1-1.554 9.426zM345.738 227.769c0 2.641 4.773 10.288 4.773 10.288s4.772-7.647 4.772-10.284a4.777 4.777 0 0 0-9.553 0l.008-.004zM326.398 239.576c.788 2.518 7.634 8.391 7.634 8.391s2.272-8.725 1.484-11.244a4.777 4.777 0 1 0-9.118 2.853zM309.175 253.616c.353 2.615 6.102 9.558 6.102 9.558s3.716-8.216 3.368-10.83a4.777 4.777 0 1 0-9.47 1.272z"/>
        <path fill="#000" d="M369.098 221.45c-1.893 1.837-10.711 3.739-10.711 3.739s2.166-8.757 4.059-10.597a4.778 4.778 0 0 1 6.652 6.859zM364.11 237.291c-2.589.515-11.006-2.68-11.006-2.68s6.573-6.164 9.161-6.688a4.777 4.777 0 0 1 1.858 9.368h-.013zM345.95 254.439c-2.492-.88-8.158-7.88-8.158-7.88s8.805-2.012 11.283-1.15a4.778 4.778 0 0 1-3.125 9.03zM329.308 264.314c-2.606-.44-9.377-6.388-9.377-6.388s8.33-3.465 10.931-3.038a4.777 4.777 0 1 1-1.554 9.426zM345.738 227.769c0 2.641 4.773 10.288 4.773 10.288s4.772-7.647 4.772-10.284a4.777 4.777 0 0 0-9.553 0l.008-.004zM326.398 239.576c.788 2.518 7.634 8.391 7.634 8.391s2.272-8.725 1.484-11.244a4.777 4.777 0 1 0-9.118 2.853zM309.175 253.616c.353 2.615 6.102 9.558 6.102 9.558s3.716-8.216 3.368-10.83a4.777 4.777 0 1 0-9.47 1.272z" opacity=".25"/>
        <path stroke="#535461" stroke-width="2" d="M309.334 271.869s2.17-22.334 15.074-34.217a34.04 34.04 0 0 0 10.527-18.768c.629-3.436.943-6.923.937-10.416"/>
        <path fill="#4D7CFE" d="M343.964 200.944c-.986 2.448-8.277 7.757-8.277 7.757s-1.571-8.88-.585-11.327a4.777 4.777 0 0 1 8.862 3.57zM345.822 217.45c-2.157 1.518-11.16 2.015-11.16 2.015s3.522-8.312 5.666-9.826a4.777 4.777 0 0 1 5.494 7.81zM336.167 240.483c-2.641.22-10.65-3.896-10.65-3.896s7.22-5.402 9.849-5.622a4.777 4.777 0 1 1 .801 9.518zM324.94 256.266c-2.557.66-11.16-2.043-11.16-2.043s6.208-6.542 8.762-7.207a4.777 4.777 0 0 1 2.399 9.246v.004zM325.165 216.19c1.07 2.413 8.532 7.484 8.532 7.484s1.273-8.928.207-11.34a4.779 4.779 0 0 0-8.739 3.87v-.014zM312.266 234.813c1.761 1.98 10.381 4.578 10.381 4.578s-1.461-8.902-3.2-10.883a4.778 4.778 0 1 0-7.181 6.305zM302.215 254.633c1.378 2.25 9.452 6.269 9.452 6.269s.07-9.02-1.32-11.27a4.777 4.777 0 1 0-8.14 5h.008z"/>
        <path fill="#000" d="M96.349 111.485h42.467v4.719H96.349zM174.604 152.97h25.354v4.719h-25.354zM174.604 184.642h37.545v4.719h-37.545zM96.349 128.118h42.467v4.719H96.349zM287.449 111.485h42.467v4.719h-42.467zM287.449 128.118h42.467v4.719h-42.467z" opacity=".1"/>
        <path fill="#4D7CFE" d="M227.02 94.94l1.189-1.558a6.164 6.164 0 0 0 4.279 1.76c2.008 0 3.496-.981 3.496-2.57 0-1.726-1.427-2.862-5.38-2.862v-1.792c3.522 0 4.843-1.158 4.843-2.685 0-1.383-1.185-2.246-2.941-2.246a5.662 5.662 0 0 0-3.68 1.506l-1.264-1.506a7.7 7.7 0 0 1 5.04-1.959c3.043 0 5.284 1.462 5.284 4.024 0 1.805-1.321 2.985-3.223 3.637v.097c2.038.44 3.746 1.791 3.746 3.9 0 2.783-2.641 4.451-5.758 4.451-2.65-.004-4.469-1.012-5.63-2.197z"/>
        <path fill="#4D7CFE" d="M324.756 54.371c0-.845.075-1.924.119-2.77h-.11c-.484.75-1.035 1.493-1.528 2.237l-3.522 4.517h9.351v1.819h-11.763v-1.541l7.022-9.246h2.584v14.7h-2.153v-9.716z" opacity=".8"/>
        <path fill="#4D7CFE" d="M405.846 22.84l.797-1.087a4.143 4.143 0 0 0 2.883 1.184c1.418 0 2.532-.845 2.532-2.232 0-1.387-.982-2.135-2.44-2.135a3.729 3.729 0 0 0-2.077.612l-.828-.533.335-5.2h6.163v1.432h-4.71l-.26 2.848a4.332 4.332 0 0 1 1.827-.387c2.02 0 3.667 1.039 3.667 3.337s-1.928 3.64-4.01 3.64a5.41 5.41 0 0 1-3.88-1.479z" opacity=".5"/>
        <path fill="#4D7CFE" d="M152.838 124.732h157.386v157.386H152.838z" opacity=".1"/>
        <path fill="#FFF" d="M158.121 117.248h157.386v157.386H158.121z"/>
        <path fill="#4D7CFE" d="M174.604 134.682h124.415v4.719H174.604z" opacity=".5"/>
        <path fill="#000" d="M174.604 168.806h79.223v4.719h-79.223zM174.604 200.482h76.868v4.719h-76.868zM174.604 216.318h104.784v4.719H174.604z" opacity=".1"/>
        <path fill="#3ACC6C" d="M276.267 169.224l-.542-.56a.132.132 0 0 0-.088-.034.119.119 0 0 0-.084.035l-3.755 3.786-1.37-1.37a.14.14 0 0 0-.087-.034.128.128 0 0 0-.084.035l-.55.55a.123.123 0 0 0 0 .176l1.726 1.722a.55.55 0 0 0 .36.176.555.555 0 0 0 .357-.172l4.117-4.134a.14.14 0 0 0 0-.176z" opacity=".5"/>
        <path fill="#3ACC6C" fill-rule="nonzero" d="M272.987 165.614a5.547 5.547 0 1 1-3.918 1.624 5.503 5.503 0 0 1 3.918-1.624zm0-.859a6.406 6.406 0 1 0 6.401 6.402 6.401 6.401 0 0 0-6.401-6.393v-.009z" opacity=".5"/>
        <path fill="#3ACC6C" d="M276.267 200.896l-.542-.555a.114.114 0 0 0-.088-.035.106.106 0 0 0-.084.035l-3.755 3.782-1.37-1.365a.123.123 0 0 0-.087-.04.114.114 0 0 0-.084.04l-.55.546a.123.123 0 0 0 0 .176l1.726 1.726a.55.55 0 0 0 .36.176.577.577 0 0 0 .357-.172l4.117-4.138a.14.14 0 0 0 0-.176z" opacity=".5"/>
        <path fill="#3ACC6C" fill-rule="nonzero" d="M272.987 197.312a5.547 5.547 0 1 1-3.918 1.624 5.503 5.503 0 0 1 3.918-1.624zm0-.88a6.406 6.406 0 1 0-.009 12.81 6.406 6.406 0 0 0 .009-12.81z" opacity=".5"/>
        <ellipse cx="225.633" cy="344.444" fill="#4D7CFE" opacity=".1" rx="31.438" ry="5.274"/>
        <path fill="#4D7CFE" d="M57.633 305.257s1.638 2.144-.757 5.385c-2.395 3.24-4.376 5.97-3.575 7.99 0 0 3.615-6.014 6.56-6.097 2.945-.084 1.008-3.659-2.228-7.278z"/>
        <path fill="#000" d="M57.633 305.257c.143.208.256.435.335.674 2.87 3.377 4.402 6.524 1.642 6.604-2.571.074-5.657 4.67-6.397 5.833.024.09.053.178.088.264 0 0 3.615-6.014 6.56-6.097 2.945-.084 1.008-3.659-2.228-7.278z" opacity=".1"/>
        <path fill="#FFD037" d="M60.68 307.991c0 .757-.084 1.37-.19 1.37-.105 0-.189-.613-.189-1.37 0-.757.106-.4.212-.4.105 0 .167-.353.167.4z"/>
        <path fill="#FFD037" d="M61.728 308.894c-.665.36-1.242.58-1.29.488-.049-.092.44-.44 1.11-.823.668-.383.4-.097.44 0 .039.097.4-.026-.26.335z"/>
        <path fill="#4D7CFE" d="M48.97 305.257s-1.643 2.144.756 5.385c2.4 3.24 4.372 5.97 3.575 7.99 0 0-3.619-6.014-6.56-6.097-2.94-.084-1.012-3.659 2.228-7.278z"/>
        <path fill="#000" d="M48.97 305.257a2.681 2.681 0 0 0-.335.674c-2.875 3.377-4.403 6.524-1.643 6.604 2.572.074 5.658 4.67 6.397 5.833a3.095 3.095 0 0 1-.088.264s-3.619-6.014-6.56-6.097c-2.94-.084-1.012-3.659 2.228-7.278z" opacity=".1"/>
        <path fill="#FFD037" d="M45.918 307.991c0 .757.084 1.37.19 1.37.105 0 .189-.613.189-1.37 0-.757-.106-.4-.211-.4-.106 0-.168-.353-.168.4z"/>
        <path fill="#FFD037" d="M44.875 308.894c.66.36 1.237.58 1.29.488.053-.092-.44-.44-1.11-.823-.669-.383-.4-.097-.44 0-.04.097-.405-.026.26.335z"/>
        <ellipse cx="53.301" cy="332.408" fill="#4D7CFE" opacity=".1" rx="17.148" ry="2.633"/>
        <path fill="#65617D" d="M62.128 315.74l-.083.673-.115.942-.048.397-.115.946-.048.396-.119.942-1.32 10.76c-.115.96-1.687 1.708-3.58 1.708h-6.81c-1.894 0-3.461-.748-3.576-1.708l-1.32-10.76-.115-.942-.048-.396-.115-.946-.048-.397-.115-.942-.088-.673c-.066-.542.784-1 1.854-1h13.947c1.079 0 1.928.458 1.862 1z"/>
        <path fill="#9D9CB5" d="M62.045 316.409l-.115.946H44.672l-.119-.946zM61.882 317.752l-.115.946H44.835l-.114-.946zM61.719 319.09l-.119.946H44.998l-.114-.946z"/>
        <path fill="#000" fill-rule="nonzero" d="M260.118 203.304c-.295-.603-2.641-8.365-2.641-8.365l-4.522-11.477s-2.742-15.105-6.837-11.337c-4.094 3.769 2.201 12.811 2.201 12.811s2.585 6.604 2.453 7.925c-.132 1.32 1.44 6.164 1.44 6.164l-.511 2.782c-.665-.044-1.097-.044-1.097-.044s-.405.581-.792.62a.365.365 0 0 1-.194-.026c-.44-.198-1.897-.158-2.641-.158a5.917 5.917 0 0 1-1.977-.634c-.255-.51-1.7-.815-2.98-.986-.973-2.422-2.343-4.777-2.532-7.304a3.157 3.157 0 0 1 .387-1.99c.086-.13.183-.25.291-.361.357-.361.792-.678 1.189-1.013a7.74 7.74 0 0 0 .55-.515c3.36-3.258 2.826-8.303-.22-11.794-3.522-4.037-19.406-12.723-24.214-5.283-.67 1.039-.691 2.24-.88 3.394a14.15 14.15 0 0 1-3.795 7.484c-1.594 1.695-3.685 3.258-4.601 5.178l-.03-.07c-.22.416-.38.86-.476 1.32-.463 2.338 1.114 4.588 1.941 6.864.282.773.485 1.572.608 2.386l.053-.502c.202 1.162.272 2.344.206 3.522-5.767 1.18-5.771 11.12-5.771 11.12s-.709 3.963-.59 5.376c.119 1.413.119 4.504.119 5.257 0 .753-.713 5.375-.793 5.93-.101.612-1.184 3.544 1.431 4.204.18.049.374.088.572.124.11 2.373.317 7.352.137 8.452 0 0 .95 6.684 1.739 8.365a19.838 19.838 0 0 0 1.76 2.84 3.082 3.082 0 0 1-.4 1.149c-.4.585-.193 1.065.48 1.272-.02.203-.047.432-.08.687-.285 2.58-.717 7.7 0 10.298 1.01 3.557 1.066 4.741 1.066 4.741 0 .579.142 1.149.414 1.66.44.594 1.189 6.106 1.189 6.995 0 .89 2.016 8.893 1.422 10.791-.595 1.897-.119 4.565-.119 4.565s-.357 4.685-.77 5.693c-.414 1.008-.595 17.253.057 21.462.651 4.209 1.07 7.709 1.07 7.709s-.44 3.852-.062 4.402c.379.55 1.008 3.738.533 3.914-.476.176-.71 1.484-.71 1.484.251.382.522.751.81 1.105a4.473 4.473 0 0 1-.536-.229c.19.269.47.638.814 1.043l-.321 4.262a.713.713 0 0 0 .528.748 5.917 5.917 0 0 0 5.89-1.668c2.964-3.025 3.963-2.606 4.509-4.447.053-.198.106-.387.145-.572a1.924 1.924 0 0 0-2.725-2.157c.19-1.32.339-2.77.194-3.601-.295-1.717-.238-6.226-.238-6.226l-.414-21.572s.77-4.266 1.66-5.926c.89-1.66.77-7.484.77-7.484l1.009-19.094 1.003-9.245s.947-3.2 2.131.357c0 0-.651 7.171-.352 8.893.3 1.721.709 10.077.414 11.917-.295 1.84-1.603 11.918-.77 14.467.831 2.549 1.716 5.63 1.54 6.639-.176 1.008-.77 22.893-.77 22.893s1.598 4.209.414 5.574c-1.185 1.364-.058 6.82-.058 6.82s.141.1.388.246l-.035.44-.37 4.904a.718.718 0 0 0 .528.749 5.926 5.926 0 0 0 5.89-1.669c2.964-3.024 3.963-2.61 4.509-4.446.053-.198.105-.392.15-.577a1.928 1.928 0 0 0-3.109-1.915 3.005 3.005 0 0 1-.3.238l-.114.074c.295-1.356.727-3.667.524-4.759-.295-1.602.295-6.463.295-6.463s1.722-5.81 1.761-8.122c.04-2.312.476-18.49.476-18.49s-.057-7.53.18-9.365c.238-1.836 2.131-17.729 4.029-22.453 1.457-3.636 2.108-12.904 1.721-17.61-.022-.238-.044-.44-.066-.669 2.32-1.743 2.567-4.614 2.567-4.614s-2.136-4.112-4.192-5.85c-2.056-1.74-2.531-4.742-2.452-6.01a3.121 3.121 0 0 0-.709-2.131s-.95-3.082-1.584-3.399a.44.44 0 0 1-.137-.105c-.44-.467-.101-1.792-.101-1.792v-.04c.07-.308.532-2.298.383-2.809-.15-.51.08-3.16.08-3.16s1.505-4.504 1.267-8.062c-.238-3.557 3.082-3.244 3.082-3.244l10.253-.106h1.167c.492-.42.935-.894 1.32-1.413.801.15 1.627-.052 2.268-.555 2.175-1.99 1.906-5.79 1.611-6.401zm-47.683 30.817l.074-1.805.401.344c.122.473.122.97 0 1.444a1.54 1.54 0 0 1-.88 1.004.982.982 0 0 0-.146.088l-.101-1.03c.418-.027.652-.049.652-.049v.004z" opacity=".1"/>
        <path fill="url(#a)" d="M250.9 206.804s5.837 3.755 8.047 1.76c2.21-1.994 1.937-5.841 1.638-6.449-.3-.607-2.677-8.422-2.677-8.422l-4.592-11.57s-2.79-15.228-6.956-11.446c-4.164 3.781 2.246 12.912 2.246 12.912s2.641 6.661 2.491 7.995c-.15 1.334 1.462 6.221 1.462 6.221l-1.66 8.999z"/>
        <path fill="url(#b)" d="M240.012 342.476a8.16 8.16 0 0 1-.154.581c-.542 1.854-1.567 1.435-4.579 4.482a6.045 6.045 0 0 1-5.987 1.682.722.722 0 0 1-.537-.753l.378-4.944.18-2.382s4.795 1.347 7.239-.356c.079-.058.158-.115.233-.181l.07-.057a1.96 1.96 0 0 1 3.157 1.928z"/>
        <path fill="url(#c)" d="M224.969 340.61a8.08 8.08 0 0 1-.15.58c-.542 1.854-1.567 1.436-4.579 4.482a6.062 6.062 0 0 1-5.987 1.686.718.718 0 0 1-.537-.757l.374-4.944.185-2.382s4.794 1.348 7.233-.356c.084-.057.159-.115.238-.18l.07-.058a1.955 1.955 0 0 1 3.153 1.928z"/>
        <path fill="url(#d)" d="M6.92.158l.199 2.567c-2.756 2.73-6.032-1.32-7-2.668C2.642 1.352 6.92.158 6.92.158z" opacity=".1" transform="translate(213.082 341.195)"/>
        <path fill="url(#e)" d="M7.25 1.642l.366-.238C5.098 5.2 1.365 3.447.203 2.77L.383.387S5.177 1.735 7.621.031c-.194.929-.37 1.611-.37 1.611z" opacity=".1" transform="translate(228.93 340.755)"/>
        <path fill="url(#f)" d="M243.838 270.61c-1.929 4.78-3.857 20.801-4.099 22.655-.242 1.853-.18 9.443-.18 9.443l-.502 18.65c-.058 2.333-1.805 8.188-1.805 8.188s-.604 4.904-.304 6.516c.3 1.611-.784 5.86-.784 5.86l.366-.238c-3.016 4.539-7.775 1.131-7.775 1.131s-1.145-5.499.057-6.872c1.202-1.374-.418-5.618-.418-5.618s.598-22.056.783-23.073c.185-1.017-.686-4.126-1.567-6.697-.88-2.57.48-12.732.784-14.585.303-1.854-.124-10.28-.44-12.015-.318-1.734.36-8.968.36-8.968-1.206-3.583-2.17-.356-2.17-.356l-.964 9.386-.99 19.27s.123 5.855-.784 7.528c-.907 1.673-1.687 5.979-1.687 5.979l.44 21.757s-.06 4.543.243 6.278c.304 1.735-.665 6.216-.665 6.216-3.372 7.89-8.805-.656-8.805-.656s.238-1.32.722-1.497c.484-.176-.18-3.407-.541-3.962-.361-.555.057-4.402.057-4.402s-.418-3.522-1.083-7.775-.48-20.622-.062-21.639c.418-1.017.784-5.723.784-5.723s-.48-2.69.123-4.605c.603-1.915-1.448-9.98-1.448-10.878 0-.899-.784-6.455-1.207-7.044a3.522 3.522 0 0 1-.44-1.673s-.062-1.198-1.087-4.782c-.749-2.641-.308-7.783 0-10.38.105-.965.193-1.577.193-1.577s34.591-5.56 35.978-4.301c.326.29.541 1.32.665 2.756.391 4.693-.273 14.04-1.748 17.702z"/>
        <path fill="url(#g)" d="M.066.36c.163 0 3.962.365 5.384.045C6.872.085.066.36.066.36z" opacity=".1" transform="translate(230.692 297.17)"/>
        <path fill="url(#h)" d="M.348.348s5.283.916 5.547.44C6.159.313.348.348.348.348z" opacity=".1" transform="translate(230.692 299.371)"/>
        <path fill="url(#i)" d="M.088.273s2.73.119 4.218.797S.088.273.088.273z" opacity=".1" transform="translate(214.843 298.49)"/>
        <path fill="url(#j)" d="M205.008 231.735s.44 8.33.202 9.8c0 0 .964 6.736 1.761 8.449a24.267 24.267 0 0 0 2.532 3.865l2.368-16.536-.55-5.661-6.313.083z"/>
        <ellipse cx="229.917" cy="184.589" fill="url(#k)" rx="9.281" ry="9.206"/>
        <path fill="url(#l)" d="M225.096 188.894s-2.892 5.618-5.785 8.25c-2.892 2.633 17.355 5.618 17.835 5.618.48 0-3.615-11.953-2.893-13.388.722-1.435-9.157-.48-9.157-.48z"/>
        <path fill="url(#m)" d="M36.906 3.24a6.014 6.014 0 0 1-1.488.828c-3.693 1.435-7.713 3.43-10.447 2.641-2.734-.788-8.514 0-8.514 0s-11.654-.96-13.983-.4A4.517 4.517 0 0 1 .07 6.37c.106-.964.194-1.576.194-1.576s34.59-5.56 35.978-4.3c.325.28.541 1.298.664 2.746z" opacity=".1" transform="translate(208.68 249.623)"/>
        <path fill="url(#n)" d="M248.117 247.553s-.321 3.963-4.02 5.42c-3.698 1.457-7.713 3.43-10.447 2.641-2.734-.788-8.514 0-8.514 0s-11.654-.96-13.983-.4c-2.328.559-3.522-.159-2.813-1.198.71-1.039.647-4.46.647-5.895 0-1.435-.805-7.255-.083-8.29.722-1.034 1.365-5.018 2.813-5.657.44-.182.771-.555.902-1.012.127-.478.127-.98 0-1.458 0 0-.242-.198-.58-.497-.85-.753-2.294-2.153-1.832-2.61.643-.64 0-4.786 0-4.786s-1.528-3.188-.964-4.38c.563-1.194-4.9-7.485-4.9-7.485s0-10.84 6.604-11.319c0 0 4.657.163 5.22-1.91.564-2.074 4.258-3.272 4.258-3.272l8.435 1.836s7.485 1.594 8.84.638c1.357-.955 2.413 1.273 2.413 1.273s4.658.242 5.142 1.197c.485.956-1.527 10.28-1.527 10.28s-3.377-.317-3.135 3.271-1.285 8.127-1.285 8.127-.243 2.642-.08 3.188c.163.546-.317 2.518-.392 2.83v.04s-.334 1.32.102 1.81c.042.041.09.077.14.105.643.317 1.608 3.425 1.608 3.425.502.602.761 1.37.726 2.153-.08 1.277.4 4.301 2.487 6.058 2.087 1.757 4.218 5.877 4.218 5.877z"/>
        <path fill="url(#o)" d="M212.276 229.103v.339l-.15 3.728s-4.94.397-7.634-.281-1.554-3.624-1.448-4.24c.08-.56.801-5.221.801-5.979 0-.757 0-3.865-.119-5.283-.118-1.417.604-5.42.604-5.42l.52-.637 5.665 2.152 1.761 15.62z"/>
        <path fill="url(#p)" d="M9.752.96l-.15 3.729s-4.94.396-7.634-.282C-.726 3.729.414.784.519.167L9.752.96z" opacity=".1" transform="translate(202.516 228.49)"/>
        <path fill="url(#q)" d="M.88 5.103c.127-.478.127-.98 0-1.458 0 0-.242-.198-.58-.497C4.556 2.562 21.404.264 27.083.018v.04s-.334 1.32.102 1.809L.88 5.103z" opacity=".1" transform="translate(211.761 228.05)"/>
        <path fill="url(#r)" d="M3.025.08S4.068 5.938.172 8.003c0 0 2.21-2.92 2.853-7.925z" opacity=".1" transform="translate(236.415 235.975)"/>
        <path fill="url(#s)" d="M.405 1.11s9.4-1.594 11.248-.362C13.503 1.981.405 1.11.405 1.11z" opacity=".1" transform="translate(213.522 243.019)"/>
        <path fill="url(#t)" d="M1.087.026S-.357 5.921.727 7.277c1.082 1.356.36-7.25.36-7.25z" opacity=".1" transform="translate(235.094 207.799)"/>
        <path fill="url(#u)" d="M.264.044s1.32 2.201.524 4.464C-.009 6.771.264.044.264.044z" opacity=".1" transform="translate(208.68 202.956)"/>
        <path fill="url(#v)" d="M206.214 222.208s1.686 1 1.122 2.554c-.563 1.554-1.122-2.554-1.122-2.554z"/>
        <path fill="url(#w)" d="M0 .18s1.567.841 1.761 2.074C1.955 3.487 0 .181 0 .181z" opacity=".1" transform="translate(206.038 217.484)"/>
        <path fill="url(#x)" d="M.343 1.616s9.844 1 11.812-1.321c0 .009-8.88 1.761-11.812 1.32z" opacity=".1" transform="translate(228.93 263.71)"/>
        <path fill="url(#y)" d="M.08.18s10.565 2.47 12.652.516c0 0-9.078.678-12.653-.515z" opacity=".1" transform="translate(212.201 264.591)"/>
        <path fill="url(#z)" d="M.225.505s4.402 0 6.467.135C8.757.775.225.505.225.505z" opacity=".1" transform="translate(229.811 268.113)"/>
        <path fill="url(#A)" d="M.361.114s2.17 2.43 4.618 1.995C7.427 1.673.361.114.361.114z" opacity=".1" transform="translate(212.642 270.314)"/>
        <path fill="url(#B)" d="M217.264 170.897c-.682 1.048-.704 2.258-.88 3.42a14.229 14.229 0 0 1-3.857 7.569c-1.928 2.033-4.574 3.874-5.072 6.357-.47 2.36 1.132 4.627 1.973 6.92 2.2 6.054-.88 12.398-1.783 18.645-.247 1.726.052 3.932 2.2 4.504.67.18 1.436.158 2.035.44.81.383 1.056 1.18 1.206 1.898.536 2.565.722 5.19.55 7.805-.096 1.47-.202 3.157 1.194 4.165.712.44 1.495.75 2.315.916 2.202.59 5.05 1.06 6.534-.317.625-.577.88-1.396 1.633-1.854 1.162-.682 2.813-.22 4.28-.15a7.77 7.77 0 0 0 6.96-3.706c1.184-2.118 1.083-4.53.642-6.81-.44-2.281-1.197-4.535-1.254-6.842a3.962 3.962 0 0 1 .52-2.32c.88-1.374 2.98-2 4.402-3.082 2.668-2.025 2.641-5.345 1.69-8.123-.95-2.778-2.712-5.433-2.927-8.303a3.152 3.152 0 0 1 .396-2.008 7.828 7.828 0 0 1 1.62-1.505c3.896-3.263 3.438-8.625.216-12.292-3.575-4.081-19.728-12.842-24.593-5.327z"/>
        <g opacity=".1">
            <path fill="url(#C)" d="M3.003 17.606a15 15 0 0 0-.612-7.185C1.95 9.263 1.347 8.109.903 6.95c-.224.415-.387.86-.485 1.321-.475 2.356 1.132 4.623 1.973 6.921.283.782.488 1.59.612 2.413z" transform="translate(206.918 180.063)"/>
            <path fill="url(#D)" d="M6.604 43.713a28.748 28.748 0 0 0-.555-7.806c-.15-.718-.396-1.515-1.202-1.898-.603-.286-1.369-.264-2.038-.44a2.778 2.778 0 0 1-1.876-1.54 38.361 38.361 0 0 0-.317 1.818c-.25 1.725.049 3.931 2.202 4.503.669.18 1.435.159 2.038.44.806.384 1.052 1.18 1.202 1.898.25 1.19.423 2.394.52 3.606-.01-.19.026-.388.026-.581z" transform="translate(206.918 180.063)"/>
            <path fill="url(#E)" d="M29.497 42.784a7.766 7.766 0 0 1-6.956 3.707c-1.466-.07-3.117-.533-4.28.15-.774.44-1.012 1.276-1.633 1.853-1.483 1.378-4.332.907-6.533.317a7.044 7.044 0 0 1-2.316-.916 2.844 2.844 0 0 1-1.14-1.84c0 .819 0 1.642-.053 2.46-.097 1.467-.202 3.153 1.193 4.161.712.44 1.496.75 2.316.916 2.201.594 5.05 1.06 6.533-.317.621-.577.88-1.391 1.634-1.85 1.162-.686 2.813-.224 4.279-.149a7.757 7.757 0 0 0 6.956-3.711c1.14-2.034 1.092-4.341.695-6.542a7.123 7.123 0 0 1-.695 1.76z" transform="translate(206.918 180.063)"/>
            <path fill="url(#F)" d="M34.6 3.777c-.61.423-1.157.93-1.625 1.506a3.157 3.157 0 0 0-.392 2.008c.075.872.26 1.731.55 2.557.45-.472.94-.904 1.466-1.29 2.642-2.2 3.276-5.37 2.422-8.325a7.647 7.647 0 0 1-2.422 3.544z" transform="translate(206.918 180.063)"/>
            <path fill="url(#G)" d="M33.82 23.716c-1.426 1.079-3.522 1.704-4.402 3.082a3.931 3.931 0 0 0-.52 2.32c.033.933.148 1.861.344 2.774.052-.108.111-.212.176-.313.88-1.369 2.976-1.998 4.402-3.082 2.435-1.849 2.642-4.776 1.92-7.387a5.578 5.578 0 0 1-1.92 2.606z" transform="translate(206.918 180.063)"/>
        </g>
        <path fill="url(#H)" d="M259.084 204.757c-1.647 4.142-3.778 5.776-3.778 5.776h-1.184l-10.425.105-1.206-3.266 1.69-7.044 1.04.066a6.031 6.031 0 0 0 2.007.638c.761 0 2.25-.04 2.69.159.062.028.13.037.198.026.392-.04.81-.625.81-.625s9.804.017 8.158 4.165z"/>
        <path fill="url(#I)" d="M9.02 4.442c-1.646 4.143-3.777 5.776-3.777 5.776H4.06c.616-1.642 1.92-5.014 2.43-5.79C7 3.655 2.611 1.859.057.869.45.827.867.241.867.241s9.8.053 8.154 4.2z" opacity=".1" transform="translate(250.063 200.314)"/>
        <path fill="#EFB7B9" d="M250.591 207.966s5.723 3.725 7.925 1.735c2.201-1.99 1.906-5.794 1.611-6.397-.295-.603-2.641-8.365-2.641-8.365l-4.522-11.477s-2.743-15.105-6.837-11.337c-4.094 3.769 2.201 12.811 2.201 12.811s2.585 6.604 2.453 7.925c-.133 1.32 1.44 6.164 1.44 6.164l-1.63 8.941z"/>
        <path fill="#4D7CFE" d="M239.88 342.533c-.044.185-.097.379-.15.577-.537 1.836-1.545 1.422-4.508 4.447a5.926 5.926 0 0 1-5.89 1.668.718.718 0 0 1-.529-.748l.37-4.905.18-2.36s4.72 1.321 7.12-.356c.079-.057.158-.114.233-.18a.41.41 0 0 0 .066-.058 1.928 1.928 0 0 1 3.108 1.915zM225.065 340.684c-.04.185-.092.374-.145.573-.537 1.84-1.545 1.422-4.508 4.446a5.917 5.917 0 0 1-5.89 1.669.713.713 0 0 1-.529-.749l.37-4.904.18-2.36s4.72 1.32 7.12-.356c.08-.055.158-.114.233-.177l.066-.061a1.928 1.928 0 0 1 3.103 1.92z"/>
        <path fill="#000" d="M220.192 341.42l.194 2.549c-2.708 2.703-5.935-1.321-6.886-2.642 2.492 1.268 6.692.092 6.692.092zM236.111 342.454l.357-.233c-2.474 3.76-6.164 2.025-7.295 1.351l.18-2.36s4.72 1.321 7.12-.356c-.19.92-.362 1.598-.362 1.598z" opacity=".1"/>
        <path fill="#444053" d="M243.64 271.274c-1.898 4.742-3.795 20.63-4.029 22.453-.233 1.823-.18 9.364-.18 9.364l-.476 18.49c-.057 2.312-1.76 8.123-1.76 8.123s-.59 4.843-.296 6.463c.295 1.62-.77 5.812-.77 5.812l.357-.238c-2.963 4.504-7.648 1.127-7.648 1.127s-1.127-5.455.058-6.82c1.184-1.364-.414-5.573-.414-5.573s.594-21.876.77-22.893c.176-1.017-.713-4.09-1.54-6.64-.828-2.548.475-12.63.77-14.466.295-1.836-.12-10.2-.414-11.918-.295-1.716.352-8.893.352-8.893-1.184-3.557-2.13-.356-2.13-.356l-.952 9.307-1.025 19.111s.118 5.807-.77 7.484c-.89 1.678-1.656 5.908-1.656 5.908l.414 21.573s-.058 4.508.237 6.225c.295 1.717-.651 6.164-.651 6.164-3.32 7.823-8.656-.652-8.656-.652s.238-1.32.71-1.484c.47-.163-.177-3.38-.533-3.914-.357-.532.061-4.402.061-4.402s-.44-3.5-1.07-7.709c-.63-4.209-.47-20.454-.057-21.462.414-1.008.77-5.693.77-5.693s-.475-2.668.12-4.565c.594-1.897-1.423-9.901-1.423-10.79 0-.89-.77-6.402-1.188-6.996a3.522 3.522 0 0 1-.414-1.66s-.057-1.184-1.065-4.741c-.736-2.598-.304-7.718 0-10.298.105-.955.193-1.563.193-1.563s34.032-5.512 35.396-4.266c.317.29.533 1.32.652 2.734.365 4.728-.286 13.996-1.743 17.654z"/>
        <path fill="#000" d="M230.775 297.91c.159 0 3.914.316 5.283.04 1.37-.278-5.283-.04-5.283-.04zM231.053 300.124s5.177.911 5.455.44c.277-.47-5.455-.44-5.455-.44zM215.204 299.177s2.685.12 4.147.788c1.462.67-4.147-.788-4.147-.788z" opacity=".1"/>
        <path fill="#EFB7B9" d="M205.439 232.695s.44 8.26.198 9.72c0 0 .951 6.684 1.74 8.366a24.245 24.245 0 0 0 2.49 3.834l2.334-16.386-.55-5.613-6.212.079z"/>
        <circle cx="229.948" cy="185.936" r="9.131" fill="#EFB7B9"/>
        <path fill="#EFB7B9" d="M225.202 190.206s-2.844 5.57-5.693 8.18c-2.848 2.61 17.078 5.574 17.553 5.574.476 0-3.557-11.86-2.848-13.283.709-1.422-9.012-.47-9.012-.47z"/>
        <path fill="#000" d="M245.361 253.664c-.446.342-.938.62-1.462.823-3.636 1.422-7.59 3.4-10.28 2.607-2.69-.793-8.364 0-8.364 0s-11.447-.947-13.754-.397a4.433 4.433 0 0 1-2.382.049c.106-.955.194-1.563.194-1.563s34.032-5.512 35.396-4.266c.317.29.533 1.299.652 2.747z" opacity=".1"/>
        <path fill="#4D7CFE" d="M247.862 248.381s-.317 3.962-3.963 5.376c-3.645 1.413-7.59 3.398-10.28 2.61-2.69-.788-8.364 0-8.364 0s-11.447-.95-13.754-.396c-2.307.555-3.478-.158-2.769-1.189.709-1.03.634-4.402.634-5.846s-.792-7.194-.08-8.224c.714-1.03 1.322-4.98 2.77-5.613a1.54 1.54 0 0 0 .88-1.004c.123-.474.123-.97 0-1.444 0 0-.237-.198-.572-.493-.836-.749-2.254-2.135-1.796-2.589.63-.634 0-4.746 0-4.746s-1.506-3.16-.951-4.345c.555-1.184-4.843-7.431-4.843-7.431s0-10.751 6.485-11.227c0 0 4.583.159 5.138-1.897.555-2.056 4.191-3.24 4.191-3.24l8.299 1.818s7.352 1.58 8.695.634c1.343-.947 2.355 1.259 2.355 1.259s4.583.237 5.059 1.184c.475.947-1.502 10.196-1.502 10.196s-3.32-.312-3.081 3.245c.237 3.557-1.268 8.06-1.268 8.06s-.238 2.612-.08 3.162c.159.55-.312 2.5-.383 2.809v.04s-.325 1.32.102 1.791a.44.44 0 0 0 .136.106c.634.312 1.585 3.399 1.585 3.399.492.597.745 1.357.709 2.13-.08 1.268.396 4.27 2.452 6.01 2.056 1.739 4.196 5.855 4.196 5.855z"/>
        <path fill="#4D7CFE" d="M212.593 230.084v.335l-.145 3.698s-4.843.396-7.484-.277c-2.642-.674-1.533-3.593-1.431-4.205.079-.554.792-5.182.792-5.93 0-.748 0-3.835-.119-5.257-.119-1.422.59-5.375.59-5.375l.515-.634 5.574 2.135 1.708 15.51z"/>
        <path fill="#000" d="M212.58 230.419l-.145 3.698s-4.843.396-7.485-.277c-2.641-.674-1.532-3.593-1.43-4.205l9.06.784z" opacity=".1"/>
        <path fill="#000" d="M212.932 234.1c.122-.474.122-.971 0-1.445 0 0-.238-.198-.572-.493 4.19-.58 20.766-2.857 26.353-3.081v.04s-.326 1.32.101 1.79l-25.882 3.188zM239.312 236.961s1.03 5.811-2.804 7.867c0 0 2.174-2.883 2.804-7.867zM214.213 244.987s9.245-1.58 11.068-.357c1.823 1.224-11.068.357-11.068.357zM236.111 208.979s-1.422 5.85-.356 7.193c1.065 1.343.356-7.193.356-7.193zM209.313 204.197s1.321 2.17.515 4.425c-.805 2.254-.515-4.425-.515-4.425z" opacity=".1"/>
        <path fill="#4D7CFE" d="M206.628 223.247s1.66.99 1.105 2.532c-.555 1.54-1.105-2.532-1.105-2.532z"/>
        <path fill="#000" d="M206.478 218.743s1.54.828 1.739 2.052c.198 1.224-1.739-2.052-1.739-2.052zM229.314 266.013s9.685.99 11.618-1.32c0 .017-8.735 1.738-11.618 1.32zM212.593 265.458s10.394 2.453 12.45.516c0 .017-8.932.673-12.45-.516zM230.062 269.214s4.35 0 6.366.119c2.017.119-6.366-.12-6.366-.12zM213.306 271.072s2.136 2.412 4.544 1.976c2.408-.435-4.544-1.976-4.544-1.976z" opacity=".1"/>
        <path fill="#E3787D" d="M217.484 172.332c-.669 1.04-.69 2.241-.88 3.394a14.15 14.15 0 0 1-3.795 7.485c-1.893 2.016-4.495 3.843-4.988 6.304-.463 2.338 1.114 4.588 1.941 6.864 2.202 6-.88 12.296-1.76 18.49-.247 1.713.048 3.9 2.156 4.469.66.176 1.414.154 2.008.44.792.379 1.035 1.171 1.18 1.88.53 2.545.714 5.15.546 7.744-.097 1.457-.203 3.13 1.17 4.134.703.432 1.474.74 2.281.907 2.166.585 4.966 1.048 6.428-.317.612-.573.841-1.383 1.607-1.836 1.145-.678 2.77-.22 4.209-.15a7.63 7.63 0 0 0 6.846-3.676c1.166-2.104 1.065-4.49.634-6.753-.432-2.263-1.18-4.5-1.233-6.789-.07-.8.11-1.602.51-2.298.881-1.365 2.928-1.986 4.333-3.055 2.641-2.008 2.615-5.283 1.664-8.057-.951-2.774-2.672-5.389-2.884-8.237a3.157 3.157 0 0 1 .388-1.99 8.004 8.004 0 0 1 1.633-1.457c3.835-3.236 3.381-8.554.211-12.19-3.513-4.051-19.406-12.737-24.205-5.306z"/>
        <g fill="#000" opacity=".1">
            <path d="M210.277 198.906c.374-2.39.165-4.836-.607-7.128-.414-1.15-1.022-2.29-1.466-3.438-.218.416-.378.86-.476 1.32-.462 2.338 1.114 4.588 1.942 6.864.281.772.485 1.57.607 2.382zM213.808 224.801c.168-2.594-.015-5.199-.546-7.744-.145-.709-.387-1.501-1.18-1.88-.594-.286-1.347-.264-2.007-.44a2.756 2.756 0 0 1-1.845-1.528 36.672 36.672 0 0 0-.312 1.801c-.247 1.713.048 3.9 2.157 4.469.66.176 1.413.154 2.007.44.793.383 1.035 1.17 1.18 1.884.245 1.18.415 2.374.511 3.575.009-.194.022-.387.035-.577zM236.35 223.864a7.625 7.625 0 0 1-6.847 3.676c-1.44-.07-3.082-.529-4.209.15-.761.44-.995 1.263-1.607 1.835-1.461 1.365-4.261.903-6.427.317a6.934 6.934 0 0 1-2.276-.911 2.87 2.87 0 0 1-1.127-1.823c0 .81 0 1.625-.049 2.435-.097 1.457-.202 3.13 1.176 4.134.7.433 1.47.74 2.276.907 2.166.585 4.966 1.047 6.427-.313.612-.577.846-1.387 1.607-1.84 1.145-.678 2.77-.22 4.21-.15a7.625 7.625 0 0 0 6.845-3.676c1.123-2.02 1.074-4.306.682-6.49-.15.61-.379 1.198-.682 1.749zM241.36 185.192c-.601.42-1.14.922-1.599 1.492a3.157 3.157 0 0 0-.387 1.99c.077.866.26 1.72.545 2.54.44-.47.922-.9 1.44-1.28 2.593-2.202 3.223-5.328 2.382-8.255a7.564 7.564 0 0 1-2.382 3.513zM240.593 204.968c-1.404 1.07-3.451 1.69-4.332 3.05a3.962 3.962 0 0 0-.51 2.303c.033.926.147 1.846.338 2.752.049-.107.106-.21.172-.308.88-1.365 2.928-1.986 4.332-3.056 2.395-1.835 2.598-4.737 1.889-7.325a5.565 5.565 0 0 1-1.889 2.584z"/>
        </g>
        <path fill="#4D7CFE" d="M258.643 205.936c-1.62 4.112-3.72 5.724-3.72 5.724h-1.166l-10.254.105-1.184-3.24 1.66-6.995 1.025.04c.617.325 1.286.54 1.977.633.753 0 2.201-.04 2.642.159a.365.365 0 0 0 .193.026c.388-.04.793-.62.793-.62s9.65.057 8.034 4.168z"/>
        <path fill="#000" d="M258.643 205.936c-1.62 4.112-3.72 5.724-3.72 5.724h-1.166c.612-1.63 1.893-4.97 2.395-5.724.501-.752-3.817-2.549-6.327-3.522.388-.04.793-.62.793-.62s9.641.03 8.025 4.142z" opacity=".1"/>
    </g>
</svg>
