<?xml version="1.0" standalone="no"?>
<!DOCTYPE svg PUBLIC "-//W3C//DTD SVG 1.1//EN" "http://www.w3.org/Graphics/SVG/1.1/DTD/svg11.dtd" >
<svg xmlns="http://www.w3.org/2000/svg">
<metadata>Generated by IcoMoon</metadata>
<defs>
<font id="icomoon" horiz-adv-x="1024">
<font-face units-per-em="1024" ascent="896" descent="-128" />
<missing-glyph horiz-adv-x="1024" />
<glyph unicode="&#x20;" horiz-adv-x="400" d="" />
<glyph unicode="&#xe900;" glyph-name="add" d="M597.333 469.333h341.333c47.128 0 85.333-38.205 85.333-85.333s-38.205-85.333-85.333-85.333v0h-341.333v-341.333c0-47.128-38.205-85.333-85.333-85.333s-85.333 38.205-85.333 85.333v0 341.333h-341.333c-47.128 0-85.333 38.205-85.333 85.333s38.205 85.333 85.333 85.333v0h341.333v341.333c0 47.128 38.205 85.333 85.333 85.333s85.333-38.205 85.333-85.333v0-341.333z" />
<glyph unicode="&#xe901;" glyph-name="outgoing-call" d="M102.4 896h204.8c0.003 0 0.007 0 0.010 0 24.652 0 45.235-17.423 50.107-40.627l0.059-0.333 51.2-256c0.634-3.022 0.997-6.495 0.997-10.053 0-14.051-5.66-26.78-14.824-36.031l-129.020-129.020c61.703-125.406 160.801-224.504 282.593-284.596l3.615-1.612 128.512 129.024c9.247 9.161 21.976 14.821 36.027 14.821 3.558 0 7.030-0.363 10.383-1.054l-0.331 0.057 256-51.2c24.064-5.12 41.472-25.6 41.472-50.176v-204.8c0-56.554-45.846-102.4-102.4-102.4v0h-102.4c-452.432 0-819.2 366.768-819.2 819.2v0 102.4c0 56.32 46.080 102.4 102.4 102.4zM650.24 450.56c-8.45-6.393-19.136-10.24-30.72-10.24-28.277 0-51.2 22.923-51.2 51.2 0 11.584 3.847 22.27 10.333 30.849l-0.093-0.129 219.136 220.16h-132.096c-28.277 0-51.2 22.923-51.2 51.2s22.923 51.2 51.2 51.2v0h256c28.277 0 51.2-22.923 51.2-51.2v0-256c0-28.277-22.923-51.2-51.2-51.2s-51.2 22.923-51.2 51.2v0 132.608l-220.16-220.16v0.512z" />
<glyph unicode="&#xe902;" glyph-name="trending-up" horiz-adv-x="1229" d="M158.003-81.203c-10.788-14.12-27.635-23.138-46.588-23.138-32.292 0-58.47 26.178-58.47 58.47 0 18.953 9.018 35.8 22.997 46.484l0.141 0.104 350.925 351.13c10.541 10.353 25.004 16.744 40.96 16.744s30.419-6.391 40.969-16.753l-0.009 0.008 193.126-192.512 251.597 251.597c10.217 8.945 23.685 14.401 38.428 14.401 32.292 0 58.47-26.178 58.47-58.47 0-15.049-5.685-28.769-15.025-39.132l0.046 0.052-292.454-292.557c-10.541-10.353-25.004-16.744-40.96-16.744s-30.419 6.391-40.969 16.753l0.009-0.008-193.126 193.741-310.067-310.17zM912.282 661.914l-134.656 134.758c-10.294 10.53-16.645 24.953-16.645 40.858 0 32.204 26.035 58.327 58.205 58.47h351.144c32.256 0 58.47-26.214 58.47-58.47v-351.13c-0.429-31.963-26.441-57.709-58.465-57.709-15.958 0-30.423 6.393-40.973 16.758l0.009-0.008-134.656 133.427-251.597-251.597c-10.541-10.353-25.004-16.744-40.96-16.744s-30.419 6.391-40.969 16.753l0.009-0.008-193.126 194.253-310.067-310.17c-10.748-11.926-26.248-19.391-43.492-19.391-32.292 0-58.47 26.178-58.47 58.47 0 17.55 7.732 33.294 19.975 44.011l0.068 0.058 350.925 351.027c10.541 10.353 25.004 16.744 40.96 16.744s30.419-6.391 40.969-16.753l-0.009 0.008 193.229-192.922 210.227 209.306z" />
<glyph unicode="&#xe903;" glyph-name="chevron-down" horiz-adv-x="1707" d="M1416.533 844.8c28.168 21.31 63.786 34.133 102.4 34.133 94.257 0 170.667-76.41 170.667-170.667 0-38.614-12.824-74.232-34.444-102.829l0.311 0.429-682.667-682.667c-30.759-30.167-72.938-48.786-119.467-48.786s-88.708 18.619-119.494 48.813l-682.64 682.64c-21.31 28.168-34.133 63.786-34.133 102.4 0 94.257 76.41 170.667 170.667 170.667 38.614 0 74.232-12.824 102.829-34.444l-0.429 0.311 563.2-561.493 563.2 563.2v-1.707z" />
<glyph unicode="&#xe904;" glyph-name="menu" horiz-adv-x="1229" d="M68.301 896h1092.198c0.789 0.033 1.714 0.051 2.644 0.051 37.721 0 68.301-30.579 68.301-68.301s-30.579-68.301-68.301-68.301c-0.93 0-1.855 0.019-2.776 0.055l0.132-0.004h-1092.198c-0.789-0.033-1.714-0.051-2.644-0.051-37.721 0-68.301 30.579-68.301 68.301s30.579 68.301 68.301 68.301c0.93 0 1.855-0.019 2.776-0.055l-0.132 0.004zM68.301 486.4h1092.198c0.789 0.033 1.714 0.051 2.644 0.051 37.721 0 68.301-30.579 68.301-68.301s-30.579-68.301-68.301-68.301c-0.93 0-1.855 0.019-2.776 0.055l0.132-0.004h-1092.198c-0.789-0.033-1.714-0.051-2.644-0.051-37.721 0-68.301 30.579-68.301 68.301s30.579 68.301 68.301 68.301c0.93 0 1.855-0.019 2.776-0.055l-0.132 0.004zM68.301 76.8h1092.198c0.789 0.033 1.714 0.051 2.644 0.051 37.721 0 68.301-30.579 68.301-68.301s-30.579-68.301-68.301-68.301c-0.93 0-1.855 0.019-2.776 0.055l0.132-0.004h-1092.198c-0.789-0.033-1.714-0.051-2.644-0.051-37.721 0-68.301 30.579-68.301 68.301s30.579 68.301 68.301 68.301c0.93 0 1.855-0.019 2.776-0.055l-0.132 0.004z" />
<glyph unicode="&#xe905;" glyph-name="search" d="M394.98 148.992l-53.646-53.646c0.967-19.513-6.315-40.505-21.447-55.58l-146.375-146.318c-12.976-11.936-30.364-19.253-49.461-19.253-40.405 0-73.159 32.754-73.159 73.159 0 19.097 7.317 36.485 19.301 49.514l-0.047-0.052 146.318 146.318c14.62 14.677 34.816 22.528 55.58 21.447l53.646 53.646c-51.094 65.331-81.93 148.654-81.93 239.18 0 215.439 174.648 390.087 390.087 390.087s390.087-174.648 390.087-390.087c0-215.439-174.648-390.087-390.087-390.087-90.64 0-174.059 30.914-240.29 82.773l0.854-0.644 0.512-0.455zM341.333 457.159c0-161.587 130.992-292.58 292.58-292.58s292.58 130.992 292.58 292.58v0c0 161.587-130.992 292.58-292.58 292.58s-292.58-130.992-292.58-292.58v0z" />
<glyph unicode="&#xe947;" glyph-name="location" d="M512 896c-176.732 0-320-143.268-320-320 0-320 320-704 320-704s320 384 320 704c0 176.732-143.27 320-320 320zM512 384c-106.040 0-192 85.96-192 192s85.96 192 192 192 192-85.96 192-192-85.96-192-192-192z" />
<glyph unicode="&#xea10;" glyph-name="checkmark" d="M864 768l-480-480-224 224-160-160 384-384 640 640z" />
<glyph unicode="&#xea90;" glyph-name="facebook" d="M608 704h160v192h-160c-123.514 0-224-100.486-224-224v-96h-128v-192h128v-512h192v512h160l32 192h-192v96c0 17.346 14.654 32 32 32z" />
<glyph unicode="&#xeaca;" glyph-name="linkedin" d="M384 512h177.106v-90.782h2.532c24.64 44.194 84.958 90.782 174.842 90.782 186.946 0 221.52-116.376 221.52-267.734v-308.266h-184.61v273.278c0 65.184-1.334 149.026-96.028 149.026-96.148 0-110.82-70.986-110.82-144.292v-278.012h-184.542v576zM64 512h192v-576h-192v576zM256 672c0-53.019-42.981-96-96-96s-96 42.981-96 96c0 53.019 42.981 96 96 96s96-42.981 96-96z" />
<glyph unicode="&#xf105;" glyph-name="align-left" d="M96 672h832v-64h-832v64zM96 544h576v-64h-576v64zM96 416h832v-64h-832v64zM96 288h576v-64h-576v64zM96 160h832v-64h-832v64z" />
<glyph unicode="&#xf110;" glyph-name="angle-down" d="M135 551l377-377 377 377 46-46-400-400-23-22-23 22-400 400z" />
<glyph unicode="&#xf12c;" glyph-name="ban" d="M512 800c229.372 0 416-186.629 416-416s-186.629-416-416-416-416 186.629-416 416 186.629 416 416 416zM512 736c-84.711 0-162.342-29.371-223-79l491-501c52.328 61.42 84 140.758 84 228 0 194.783-157.217 352-352 352zM244 612c-52.328-61.42-84-140.758-84-228 0-194.783 157.217-352 352-352 84.711 0 162.342 29.371 223 79z" />
<glyph unicode="&#xf15c;" glyph-name="calendar" d="M288 768h64v-32h320v32h64v-32h128v-704h-704v704h128v32zM224 672v-64h576v64h-64v-32h-64v32h-320v-32h-64v32h-64zM224 544v-448h576v448h-576zM416 480h64v-64h-64v64zM544 480h64v-64h-64v64zM672 480h64v-64h-64v64zM288 352h64v-64h-64v64zM416 352h64v-64h-64v64zM544 352h64v-64h-64v64zM672 352h64v-64h-64v64zM288 224h64v-64h-64v64zM416 224h64v-64h-64v64zM544 224h64v-64h-64v64z" />
<glyph unicode="&#xf179;" glyph-name="chain" d="M696 768c53.473 0 103.207-21.145 141-59 37.824-37.824 59-87.527 59-141s-21.176-104.176-59-142l-47-47c-37.793-37.855-88.527-59-142-59-25.375 0-50.088 4.881-73 14l52 52c6.881-1.217 13.832-2 21-2 36.416 0 71.24 14.24 97 40l47 47c53.119 53.119 53.119 139.912 0 193-25.729 25.76-59.615 40-96 40-36.416 0-71.271-14.207-97-40l-47-47c-31.904-31.871-44.527-76.561-38-118l-52-52c-9.119 22.912-14 47.592-14 73 0 53.473 21.176 104.176 59 142l47 47c37.793 37.855 88.527 59 142 59zM617 535l46-46-256-256-46 46zM376 448c25.377 0 50.088-4.881 73-14l-52-52c-6.881 1.217-13.832 2-21 2-36.416 0-71.24-14.24-97-40l-47-47c-53.119-53.119-53.119-139.912 0-193 25.729-25.76 59.615-40 96-40 36.416 0 71.271 14.207 97 40l47 47c31.904 31.871 44.527 76.561 38 118l52 52c9.119-22.912 14-47.592 14-73 0-53.473-21.176-104.176-59-142l-47-47c-37.793-37.855-88.527-59-142-59s-103.207 21.145-141 59c-37.824 37.824-59 87.527-59 141s21.176 104.176 59 142l47 47c37.793 37.855 88.527 59 142 59z" />
<glyph unicode="&#xf17b;" glyph-name="check" d="M905 695l46-46-576-576-23-22-23 22-256 256 46 46 233-233z" />
<glyph unicode="&#xf17e;" glyph-name="check-square" d="M128 768h762l-64-64h-634v-640h640v378l64 64v-506h-768v768zM873 663l46-46-384-384-23-22-23 22-160 160 46 46 137-137z" />
<glyph unicode="&#xf190;" glyph-name="clone" d="M160 736h544v-128h-64v64h-416v-416h64v-64h-128v544zM320 576h544v-544h-544v544zM384 512v-416h416v416h-416z" />
<glyph unicode="&#xf194;" glyph-name="cloud-upload" d="M512 768c108.086 0 196.477-68.189 235-162 112.863-5.822 202.568-95.547 210-208 39.656-35.254 67-85.666 67-142 0-106.361-85.639-192-192-192h-640c-106.361 0-192 85.639-192 192 0 88.023 60.279 158.195 139 181 19.096 54.371 65.584 93.406 123 103 14.516 127.818 118.193 228 250 228zM512 704c-107.842 0-192-84.156-192-192v-32h-32c-46.203 0-84.412-30.855-94-74l-4-21-21-4c-58.637-10.197-105-60.359-105-125 0-72.838 55.162-128 128-128h640c72.838 0 128 55.162 128 128 0 40.533-20.793 79.344-51 102l-13 10v16c0 88.145-71.855 160-160 160h-33l-7 23c-24.926 80.314-95.6 137-184 137zM512 525l23-22 128-128-46-46-73 73v-210h-64v210l-73-73-46 46 128 128z" />
<glyph unicode="&#xf1a2;" glyph-name="comments" d="M64 736h640v-512h-309l-151-121-52-42v163h-128v512zM128 672v-384h128v-93l108 86 9 7h267v384h-512zM768 608h192v-512h-128v-163l-203 163h-298l80 64h240l117-93v93h128v384h-128v64z" />
<glyph unicode="&#xf1bb;" glyph-name="dollar" d="M480 800h64v-67c90.709-15.195 160-94.127 160-189v-32h-64v32c0 71.053-56.947 128-128 128-70.875 0-128-57.83-128-128 0-39.006 13.418-59.375 38-79s61.99-35 102-51 82.58-32.609 118-61 62-72.025 62-129c0-93.607-69.053-173.586-160-189v-67h-64v67c-90.709 15.195-160 94.127-160 189v32h64v-32c0-71.053 56.947-128 128-128 70.627 0 128 59.061 128 128 0 39.234-13.42 59.297-38 79s-62.010 36.008-102 52-82.582 31.725-118 60-62 72.184-62 129c0 94.342 69.191 173.713 160 189v67z" />
<glyph unicode="&#xf1c3;" glyph-name="ellipsis" d="M192 448c35.346 0 64-28.654 64-64s-28.654-64-64-64-64 28.654-64 64 28.654 64 64 64zM512 448c35.346 0 64-28.654 64-64s-28.654-64-64-64-64 28.654-64 64 28.654 64 64 64zM832 448c35.346 0 64-28.654 64-64s-28.654-64-64-64-64 28.654-64 64 28.654 64 64 64z" />
<glyph unicode="&#xf1c6;" glyph-name="envelope" d="M96 640h832v-576h-832v576zM234 576l278-185 278 185h-556zM160 548v-420h704v420l-334-223-18-11-18 11z" />
<glyph unicode="&#xf1d4;" glyph-name="eye" d="M512 640c266.738 0 472-235 472-235l19-21-19-21s-187.18-213.362-436-233c-11.9-1.508-23.701-2-36-2s-24.1 0.492-36 2c-248.82 19.639-436 233-436 233l-19 21 19 21s205.262 235 472 235zM512 576c-71.311 0-137.039-19.77-194-46h1c-19.773-33.414-31-72.24-31-114 0-115.643 86.746-210.662 199-223 8.285-0.514 16.557-1 25-1 7.77 0 15.365 0.564 23 1 0.664 0.066 1.338-0.072 2 0 112.254 12.338 199 107.357 199 223 0 42.391-11.672 81.283-32 115-56.494 25.75-121.533 45-192 45zM512 512c53.020 0 96-42.98 96-96s-42.98-96-96-96-96 42.98-96 96 42.98 96 96 96zM232 482c-60.697-40.498-103.615-82.266-119-98 18.344-18.76 74.375-74.434 155-121-27.947 44.363-44 96.863-44 153 0 22.842 2.957 44.555 8 66zM792 482c5.012-21.291 8-43.152 8-66 0-56.137-16.053-108.637-44-153 80.625 46.566 136.656 102.24 155 121-15.385 15.734-58.303 57.502-119 98z" />
<glyph unicode="&#xf1d5;" glyph-name="eye-slash" d="M119 823l216-216c53.92 19.588 113.225 33 177 33 268.64 0 463.808-225.4 472-235l20-23-21-21c-6.164-6.137-103.891-100.307-235-167l203-203-46-46-278 279-356 356-198 197zM512 576c-44.439 0-86.316-8.131-126-20l66-66c16.424 13.275 37.266 22 60 22 52.928 0 96-43.072 96-96 0-22.734-8.725-43.576-22-60l91-91c36.604 39.953 59 92.924 59 151 0 41.6-12.336 81.801-34 117-56.832 25.217-120.752 43-190 43zM212 548l82-82c-3.871-16.416-6-32.848-6-50 0-114.080 85.752-209.264 199-222l3-1c14.912-1.248 29.057-1.248 44 0l4 1c8.352 0.928 17 2.176 25 4l55-55c-24.896-6.336-50.465-10.984-76-13h-2c-9.279-0.801-18.721-2-28-2s-18.721 1.199-28 2h-2c-222.848 17.76-431.848 221.88-441 231l-21 21 20 23c4.607 5.439 68.385 79.32 172 143zM233 485c-56.801-36.672-100.16-75.225-124-99 29.248-25.951 85.096-71.615 153-112-24 42.111-38 90.416-38 142 0 23.584 3.432 46.473 9 69zM791 485c5.535-22.465 9-45.48 9-69 0-51.648-14-99.855-38-142 67.936 40.385 122.752 85.049 152 111-23.84 23.744-66.297 63.359-123 100zM512 448c-5.203 0-9.656-1.791-14-4l42-42c2.207 4.344 4 8.807 4 14 0 17.633-14.336 32-32 32z" />
<glyph unicode="&#xf1f3;" glyph-name="filter" d="M160 768h704v-75l-7-9-249-311v-229l-13-10-128-96-51-38v373l-249 311-7 9v75zM233 704l230-288h98l230 288h-558zM480 352v-224l64 48v176h-64z" />
<glyph unicode="&#xf247;" glyph-name="inbox" d="M229 736h566l5-27 64-416v-261h-704v261l64 416zM284 672l-54-352h218v-32c0-35.732 28.268-64 64-64s64 28.268 64 64v32h218l-54 352h-456zM224 256v-160h576v160h-166c-14.512-54.738-62.908-96-122-96s-107.488 41.262-122 96h-166z" />
<glyph unicode="&#xf26d;" glyph-name="list-alt" d="M329 727l46-46-128-128-23-22-23 22-64 64 46 46 41-41zM480 672h416v-64h-416v64zM329 471l46-46-128-128-23-22-23 22-64 64 46 46 41-41zM480 416h416v-64h-416v64zM329 215l46-46-128-128-23-22-23 22-64 64 46 46 41-41zM480 160h416v-64h-416v64z" />
<glyph unicode="&#xf26f;" glyph-name="list-ul" d="M128 736h192v-192h-192v192zM192 672v-64h64v64h-64zM384 672h480v-64h-480v64zM128 480h192v-192h-192v192zM192 416v-64h64v64h-64zM384 416h480v-64h-480v64zM128 224h192v-192h-192v192zM192 160v-64h64v64h-64zM384 160h480v-64h-480v64z" />
<glyph unicode="&#xf28a;" glyph-name="meh" d="M512 768c211.7 0 384-172.301 384-384s-172.301-384-384-384-384 172.301-384 384 172.301 384 384 384zM512 704c-177.109 0-320-142.891-320-320s142.891-320 320-320 320 142.891 320 320-142.891 320-320 320zM368 512c26.51 0 48-21.49 48-48s-21.49-48-48-48-48 21.49-48 48 21.49 48 48 48zM656 512c26.51 0 48-21.49 48-48s-21.49-48-48-48-48 21.49-48 48 21.49 48 48 48zM352 256h320v-64h-320v64z" />
<glyph unicode="&#xf28c;" glyph-name="microphone" d="M416 768h192c34.979 0 64-29.021 64-64v-384c0-34.979-29.021-64-64-64h-192c-34.979 0-64 29.021-64 64v384c0 34.979 29.021 64 64 64zM416 704v-384h192v384h-192zM224 448h64v-128c0-71.053 56.947-128 128-128h192c71.053 0 128 56.947 128 128v128h64v-128c0-105.652-86.348-192-192-192h-64v-64h128v-64h-320v64h128v64h-64c-105.652 0-192 86.348-192 192v128z" />
<glyph unicode="&#xf29c;" glyph-name="newspaper" d="M96 736h640v-224h192v-352c0-70.713-57.287-128-128-128h-576c-70.713 0-128 57.287-128 128v576zM160 672v-512c0-38.086 25.914-64 64-64h466c-10.926 18.852-18 40.635-18 64v512h-512zM224 608h384v-160h-384v160zM288 544v-32h256v32h-256zM736 448v-288c0-38.086 25.914-64 64-64s64 25.914 64 64v288h-128zM224 416h160v-64h-160v64zM448 416h160v-64h-160v64zM224 320h160v-64h-160v64zM448 320h160v-64h-160v64zM224 224h160v-64h-160v64zM448 224h160v-64h-160v64z" />
<glyph unicode="&#xf2b0;" glyph-name="pencil" d="M790 767c26.781 0 53.734-10.734 74-31 40.533-40.533 40.533-106.467 0-147l-1-2-2-2 19-19-528-528-10-2-176-35-47-10 10 47 35 176 2 10 528 528 20-19 3 3c20.266 20.266 46.219 31 73 31zM790 704c-9.982 0-19.467-4.467-28-13l-3-3 57-57 3 3c17.066 17.066 17.066 39.934 0 57-8.533 8.533-19.018 13-29 13zM695 662l-47-46 96-96 46 47zM604 570l-335-334 58-13 20-4 4-20 13-58 334 335zM223 181l-13-65 34-34 65 13-16 70z" />
<glyph unicode="&#xf2c3;" glyph-name="plus-circle" d="M512 800c229.372 0 416-186.629 416-416s-186.629-416-416-416-416 186.629-416 416 186.629 416 416 416zM512 736c-194.783 0-352-157.217-352-352s157.217-352 352-352 352 157.217 352 352-157.217 352-352 352zM480 576h64v-160h160v-64h-160v-160h-64v160h-160v64h160v160z" />
<glyph unicode="&#xf307;" glyph-name="sort-alpha-asc" d="M262 736h52l7-21 62-171h1v-2l30-83 2-5v-38h-64v27l-13 37h-102l-13-37v-27h-64v38l2 5 30 83v2h1l62 171zM704 736h64v-598l83 83 45-45-137-138-23-22-23 22-137 138 45 45 83-83v598zM288 619l-27-75h54zM160 352h256v-77l-9-10-169-169h178v-64h-256v77l9 10 169 169h-178v64z" />
<glyph unicode="&#xf308;" glyph-name="sort-alpha-desc" d="M160 736h256v-77l-9-10-169-169h178v-64h-256v77l9 10 169 169h-178v64zM704 736h64v-598l83 83 45-45-137-138-23-22-23 22-137 138 45 45 83-83v598zM262 352h52l7-21 62-171h1v-2l30-83 2-5v-38h-64v27l-13 37h-102l-13-37v-27h-64v38l2 5 30 83v2h1l62 171zM288 235l-27-75h54z" />
<glyph unicode="&#xf309;" glyph-name="sort-amount-asc" d="M128 736h64v-64h-64v64zM672 736h64v-598l83 83 45-45-137-138-23-22-23 22-137 138 45 45 83-83v598zM128 608h128v-64h-128v64zM128 480h192v-64h-192v64zM128 352h256v-64h-256v64zM128 224h320v-64h-320v64zM128 96h384v-64h-384v64z" />
<glyph unicode="&#xf30a;" glyph-name="sort-amount-desc" d="M128 736h384v-64h-384v64zM672 736h64v-598l83 83 45-45-137-138-23-22-23 22-137 138 45 45 83-83v598zM128 608h320v-64h-320v64zM128 480h256v-64h-256v64zM128 352h192v-64h-192v64zM128 224h128v-64h-128v64zM128 96h64v-64h-64v64z" />
<glyph unicode="&#xf30d;" glyph-name="sort-numeric-asc" d="M275 736h77v-320h-64v205c-21.797-23.387-51.957-45-96-45v64c31.348 0 47.293 15.402 60 34s18 37 18 37zM704 736h64v-598l83 83 45-45-137-138-23-22-23 22-137 138 45 45 83-83v598zM272 352h32c61.562 0 112-50.438 112-112 0-43.021-27.488-77.68-60-98-35.416-21.795-62.459-33.908-86-46h146v-64h-256v32c0 18.605 8.732 36.885 20 49s24.559 19.904 39 28c28.883 16.191 63.506 31.695 103 56 18.689 11.68 30 28.422 30 43 0 28.039-19.961 48-48 48h-32c-28.039 0-48-19.961-48-48v-16h-64v16c0 61.562 50.438 112 112 112z" />
<glyph unicode="&#xf30e;" glyph-name="sort-numeric-desc" d="M272 736h32c61.562 0 112-50.438 112-112 0-43.021-27.488-77.68-60-98-35.416-21.795-62.459-33.908-86-46h146v-64h-256v32c0 18.605 8.732 36.885 20 49s24.559 19.904 39 28c28.883 16.191 63.506 31.695 103 56 18.689 11.68 30 28.422 30 43 0 28.039-19.961 48-48 48h-32c-28.039 0-48-19.961-48-48v-16h-64v16c0 61.562 50.438 112 112 112zM704 736h64v-598l83 83 45-45-137-138-23-22-23 22-137 138 45 45 83-83v598zM275 352h77v-320h-64v205c-21.797-23.387-51.957-45-96-45v64c31.348 0 47.293 15.402 60 34s18 37 18 37z" />
<glyph unicode="&#xf318;" glyph-name="star" d="M970.752 494.496l-243.168-219.072 67.904-320.224-283.488 163.553-283.488-163.553 67.904 320.194-243.168 219.104 325.504 34.336 133.248 298.976 133.248-298.976z" />
<glyph unicode="&#xf33a;" glyph-name="th-large" d="M160 736h704v-704h-704v704zM224 672v-256h256v256h-256zM544 672v-256h256v256h-256zM224 352v-256h256v256h-256zM544 352v-256h256v256h-256z" />
<glyph unicode="&#xf342;" glyph-name="times" d="M231 711l281-281 281 281 46-46-281-281 281-281-46-46-281 281-281-281-46 46 281 281-281 281z" />
<glyph unicode="&#xf344;" glyph-name="times-circle" d="M512 800c229.372 0 416-186.629 416-416s-186.629-416-416-416-416 186.629-416 416 186.629 416 416 416zM512 736c-194.783 0-352-157.217-352-352s157.217-352 352-352 352 157.217 352 352-157.217 352-352 352zM391 551l121-121 121 121 46-46-121-121 121-121-46-46-121 121-121-121-46 46 121 121-121 121z" />
<glyph unicode="&#xf34d;" glyph-name="trash" d="M456 768h128c16.711 0 33.936-5.936 46-18s18-29.289 18-46v-32h192v-64h-32v-512c0-52.654-43.346-96-96-96h-384c-52.654 0-96 43.346-96 96v512h-32v64h192v32c0 16.711 5.936 33.936 18 46s29.289 18 46 18zM456 704v-32h128v32h-128zM296 608v-512c0-17.746 14.254-32 32-32h384c17.746 0 32 14.254 32 32v512h-448zM360 512h64v-352h-64v352zM488 512h64v-352h-64v352zM616 512h64v-352h-64v352z" />
<glyph unicode="&#xf35a;" glyph-name="twitter" d="M896 622.176c-21.119-31.584-47.84-59.328-78.623-81.568 0.287-6.752 0.447-13.568 0.447-20.383 0-208.224-158.465-448.32-448.29-448.32-88.99 0-171.807 26.080-241.536 70.783 12.352-1.471 24.896-2.207 37.6-2.207 73.824 0 141.76 25.184 195.68 67.455-68.959 1.281-127.135 46.848-147.199 109.439 9.6-1.822 19.488-2.814 29.633-2.814 14.398 0 28.318 1.92 41.535 5.535-72.096 14.465-126.4 78.145-126.4 154.496v1.984c21.248-11.809 45.537-18.881 71.359-19.713-42.271 28.256-70.078 76.48-70.078 131.137 0 28.896 7.775 55.969 21.311 79.232 77.729-95.328 193.824-158.080 324.77-164.641-2.656 11.52-4.064 23.553-4.064 35.904 0 87.008 70.559 157.568 157.568 157.568 45.311 0 86.271-19.137 115.008-49.76 35.904 7.070 69.631 20.191 100.062 38.24-11.775-36.801-36.734-67.682-69.279-87.17 31.871 3.809 62.24 12.258 90.496 24.801z" />
<glyph unicode="&#xf364;" glyph-name="user" d="M480 736c123.332 0 224-100.668 224-224 0-77.082-39.396-145.668-99-186 114.148-48.955 195-162.201 195-294h-64c0 141.781-114.219 256-256 256s-256-114.219-256-256h-64c0 131.799 80.852 245.044 195 294-59.604 40.332-99 108.918-99 186 0 123.332 100.668 224 224 224zM480 672c-88.744 0-160-71.256-160-160s71.256-160 160-160 160 71.256 160 160-71.256 160-160 160z" />
<glyph unicode="&#xf375;" glyph-name="volume" d="M480 749v-730l-55 54-151 151h-146v320h146l151 151zM772 692c76.32-80.352 124-188.672 124-308s-47.68-227.616-124-308l-45 45c64.768 68.768 105 161.305 105 263s-40.232 194.264-105 263zM682 602c53.152-57.152 86-133.969 86-218s-32.848-160.816-86-218l-45 46c41.6 45.568 67 105.6 67 172s-25.4 126.465-67 172zM416 594l-105-105-10-9h-109v-192h109l10-9 105-105v420zM592 511c30.049-33.889 48-78.264 48-127s-17.951-93.111-48-127l-46 46c18.496 22.207 30 49.896 30 81s-11.504 58.793-30 81z" />
</font>
</defs>
</svg>
